<svg width="334" height="76" viewBox="0 0 334 76" fill="none" xmlns="http://www.w3.org/2000/svg">
<path d="M18.8524 36.792C17.6204 35.2613 15.9964 34.496 13.9804 34.496C13.271 34.496 12.5804 34.664 11.9084 35C11.2364 35.336 10.9004 35.9147 10.9004 36.736C10.9004 37.408 11.2364 37.912 11.9084 38.248C12.6177 38.5467 13.495 38.8267 14.5404 39.088C15.623 39.312 16.7617 39.5733 17.9564 39.872C19.1884 40.1333 20.327 40.5627 21.3724 41.16C22.455 41.7573 23.3324 42.5787 24.0044 43.624C24.7137 44.632 25.0684 45.9947 25.0684 47.712C25.0684 49.4667 24.6764 50.9227 23.8924 52.08C23.1457 53.2 22.175 54.1147 20.9804 54.824C19.7857 55.496 18.4417 55.9627 16.9484 56.224C15.455 56.5227 13.9804 56.672 12.5244 56.672C10.6204 56.672 8.69771 56.4107 6.75638 55.888C4.81504 55.328 3.17238 54.3573 1.82838 52.976L6.92438 47.32C7.70838 48.2907 8.56704 49.0373 9.50038 49.56C10.471 50.0453 11.591 50.288 12.8604 50.288C13.831 50.288 14.7084 50.1573 15.4924 49.896C16.2764 49.5973 16.6684 49.0747 16.6684 48.328C16.6684 47.6187 16.3137 47.096 15.6044 46.76C14.9324 46.3867 14.055 46.088 12.9724 45.864C11.927 45.6027 10.7884 45.3413 9.55638 45.08C8.36171 44.7813 7.22304 44.352 6.14038 43.792C5.09504 43.232 4.21771 42.448 3.50838 41.44C2.83638 40.3947 2.50038 39.0133 2.50038 37.296C2.50038 35.6907 2.81771 34.3093 3.45238 33.152C4.12438 31.9947 4.98304 31.0427 6.02838 30.296C7.11104 29.5493 8.34304 29.008 9.72438 28.672C11.1057 28.2987 12.5057 28.112 13.9244 28.112C15.7164 28.112 17.527 28.3733 19.3564 28.896C21.1857 29.4187 22.735 30.352 24.0044 31.696L18.8524 36.792ZM29.4863 13.664H37.8863V56H29.4863V13.664ZM44.0331 28.784H52.4331V56H44.0331V28.784ZM43.3611 20.216C43.3611 18.872 43.8278 17.7333 44.7611 16.8C45.7318 15.8293 46.8891 15.344 48.2331 15.344C49.5771 15.344 50.7158 15.8293 51.6491 16.8C52.6198 17.7333 53.1051 18.872 53.1051 20.216C53.1051 21.56 52.6198 22.7173 51.6491 23.688C50.7158 24.6213 49.5771 25.088 48.2331 25.088C46.8891 25.088 45.7318 24.6213 44.7611 23.688C43.8278 22.7173 43.3611 21.56 43.3611 20.216ZM59.252 28.784H66.98V32.368H67.092C67.428 31.8827 67.8573 31.3973 68.38 30.912C68.94 30.3893 69.5747 29.9227 70.284 29.512C71.0307 29.1013 71.8333 28.7653 72.692 28.504C73.5507 28.2427 74.4653 28.112 75.436 28.112C77.452 28.112 79.2813 28.4667 80.924 29.176C82.5667 29.848 83.9667 30.8187 85.124 32.088C86.3187 33.32 87.2333 34.7947 87.868 36.512C88.5027 38.2293 88.82 40.1147 88.82 42.168C88.82 44.072 88.5213 45.9013 87.924 47.656C87.364 49.3733 86.5427 50.904 85.46 52.248C84.4147 53.592 83.1267 54.6747 81.596 55.496C80.0653 56.28 78.3293 56.672 76.388 56.672C74.6333 56.672 72.9907 56.4107 71.46 55.888C69.9667 55.328 68.7347 54.3947 67.764 53.088H67.652V68.768H59.252V28.784ZM66.98 42.392C66.98 44.4453 67.5587 46.1067 68.716 47.376C69.9107 48.6453 71.572 49.28 73.7 49.28C75.828 49.28 77.4707 48.6453 78.628 47.376C79.8227 46.1067 80.42 44.4453 80.42 42.392C80.42 40.3387 79.8227 38.6773 78.628 37.408C77.4707 36.1387 75.828 35.504 73.7 35.504C71.572 35.504 69.9107 36.1387 68.716 37.408C67.5587 38.6773 66.98 40.3387 66.98 42.392Z" fill="#00334E"/>
<path d="M92.7334 42.392C92.7334 40.2267 93.1254 38.2667 93.9094 36.512C94.6934 34.7573 95.7574 33.264 97.1014 32.032C98.4828 30.7627 100.088 29.792 101.917 29.12C103.784 28.448 105.763 28.112 107.853 28.112C109.944 28.112 111.904 28.448 113.733 29.12C115.6 29.792 117.205 30.7627 118.549 32.032C119.931 33.264 121.013 34.7573 121.797 36.512C122.581 38.2667 122.973 40.2267 122.973 42.392C122.973 44.5573 122.581 46.5173 121.797 48.272C121.013 50.0267 119.931 51.5387 118.549 52.808C117.205 54.04 115.6 54.992 113.733 55.664C111.904 56.336 109.944 56.672 107.853 56.672C105.763 56.672 103.784 56.336 101.917 55.664C100.088 54.992 98.4828 54.04 97.1014 52.808C95.7574 51.5387 94.6934 50.0267 93.9094 48.272C93.1254 46.5173 92.7334 44.5573 92.7334 42.392ZM101.133 42.392C101.133 44.4453 101.712 46.1067 102.869 47.376C104.064 48.6453 105.725 49.28 107.853 49.28C109.981 49.28 111.624 48.6453 112.781 47.376C113.976 46.1067 114.573 44.4453 114.573 42.392C114.573 40.3387 113.976 38.6773 112.781 37.408C111.624 36.1387 109.981 35.504 107.853 35.504C105.725 35.504 104.064 36.1387 102.869 37.408C101.712 38.6773 101.133 40.3387 101.133 42.392ZM127.921 28.784H135.985V32.48H136.097C136.358 31.9573 136.732 31.4347 137.217 30.912C137.702 30.3893 138.281 29.9227 138.953 29.512C139.625 29.1013 140.39 28.7653 141.249 28.504C142.108 28.2427 143.041 28.112 144.049 28.112C146.177 28.112 147.894 28.448 149.201 29.12C150.508 29.7547 151.516 30.6507 152.225 31.808C152.972 32.9653 153.476 34.328 153.737 35.896C153.998 37.464 154.129 39.1627 154.129 40.992V56H145.729V42.672C145.729 41.888 145.692 41.0853 145.617 40.264C145.58 39.4053 145.412 38.6213 145.113 37.912C144.852 37.2027 144.422 36.624 143.825 36.176C143.265 35.728 142.444 35.504 141.361 35.504C140.278 35.504 139.401 35.7093 138.729 36.12C138.057 36.4933 137.534 37.016 137.161 37.688C136.825 38.3227 136.601 39.0507 136.489 39.872C136.377 40.6933 136.321 41.552 136.321 42.448V56H127.921V28.784ZM160.189 13.664H168.589V56H160.189V13.664ZM174.736 28.784H183.136V56H174.736V28.784ZM174.064 20.216C174.064 18.872 174.531 17.7333 175.464 16.8C176.435 15.8293 177.592 15.344 178.936 15.344C180.28 15.344 181.419 15.8293 182.352 16.8C183.323 17.7333 183.808 18.872 183.808 20.216C183.808 21.56 183.323 22.7173 182.352 23.688C181.419 24.6213 180.28 25.088 178.936 25.088C177.592 25.088 176.435 24.6213 175.464 23.688C174.531 22.7173 174.064 21.56 174.064 20.216ZM189.171 28.784H197.235V32.48H197.347C197.608 31.9573 197.982 31.4347 198.467 30.912C198.952 30.3893 199.531 29.9227 200.203 29.512C200.875 29.1013 201.64 28.7653 202.499 28.504C203.358 28.2427 204.291 28.112 205.299 28.112C207.427 28.112 209.144 28.448 210.451 29.12C211.758 29.7547 212.766 30.6507 213.475 31.808C214.222 32.9653 214.726 34.328 214.987 35.896C215.248 37.464 215.379 39.1627 215.379 40.992V56H206.979V42.672C206.979 41.888 206.942 41.0853 206.867 40.264C206.83 39.4053 206.662 38.6213 206.363 37.912C206.102 37.2027 205.672 36.624 205.075 36.176C204.515 35.728 203.694 35.504 202.611 35.504C201.528 35.504 200.651 35.7093 199.979 36.12C199.307 36.4933 198.784 37.016 198.411 37.688C198.075 38.3227 197.851 39.0507 197.739 39.872C197.627 40.6933 197.571 41.552 197.571 42.448V56H189.171V28.784ZM247.087 51.296C245.743 53.0133 244.045 54.3387 241.991 55.272C239.938 56.2053 237.81 56.672 235.607 56.672C233.517 56.672 231.538 56.336 229.671 55.664C227.842 54.992 226.237 54.04 224.855 52.808C223.511 51.5387 222.447 50.0267 221.663 48.272C220.879 46.5173 220.487 44.5573 220.487 42.392C220.487 40.2267 220.879 38.2667 221.663 36.512C222.447 34.7573 223.511 33.264 224.855 32.032C226.237 30.7627 227.842 29.792 229.671 29.12C231.538 28.448 233.517 28.112 235.607 28.112C237.549 28.112 239.303 28.448 240.871 29.12C242.477 29.792 243.821 30.7627 244.903 32.032C246.023 33.264 246.882 34.7573 247.479 36.512C248.077 38.2667 248.375 40.2267 248.375 42.392V45.024H228.887C229.223 46.6293 229.951 47.9173 231.071 48.888C232.191 49.8213 233.573 50.288 235.215 50.288C236.597 50.288 237.754 49.9893 238.687 49.392C239.658 48.7573 240.498 47.9547 241.207 46.984L247.087 51.296ZM239.975 39.312C240.013 37.8933 239.546 36.68 238.575 35.672C237.605 34.664 236.354 34.16 234.823 34.16C233.89 34.16 233.069 34.3093 232.359 34.608C231.65 34.9067 231.034 35.2987 230.511 35.784C230.026 36.232 229.634 36.7733 229.335 37.408C229.074 38.0053 228.925 38.64 228.887 39.312H239.975Z" fill="white"/>
<path d="M326.936 66.4096C326.936 66.0669 326.925 65.7456 326.904 65.4458C326.883 65.1459 326.872 64.8728 326.872 64.6265H328.061C328.061 64.83 328.066 65.0335 328.077 65.2369C328.087 65.4404 328.093 65.6493 328.093 65.8634H328.125C328.211 65.6814 328.328 65.5047 328.478 65.3333C328.639 65.162 328.826 65.012 329.041 64.8835C329.255 64.7443 329.496 64.6372 329.763 64.5622C330.031 64.4766 330.32 64.4337 330.631 64.4337C331.123 64.4337 331.547 64.5087 331.9 64.6586C332.264 64.8086 332.564 65.0174 332.8 65.2851C333.035 65.5529 333.206 65.8795 333.314 66.2651C333.431 66.6399 333.49 67.0522 333.49 67.502V72.1446H332.237V67.6305C332.237 66.9987 332.098 66.5007 331.82 66.1365C331.541 65.7724 331.107 65.5904 330.518 65.5904C330.111 65.5904 329.758 65.66 329.458 65.7992C329.169 65.9384 328.928 66.1365 328.735 66.3936C328.553 66.6506 328.414 66.9558 328.318 67.3092C328.232 67.6626 328.189 68.0535 328.189 68.4819V72.1446H326.936V66.4096Z" fill="#00334E"/>
<path d="M324.725 70.7791C324.275 71.3574 323.782 71.7644 323.247 72C322.711 72.2249 322.09 72.3373 321.383 72.3373C320.794 72.3373 320.264 72.2356 319.793 72.0321C319.322 71.8179 318.92 71.5341 318.588 71.1807C318.267 70.8273 318.015 70.4096 317.833 69.9277C317.662 69.4458 317.576 68.9317 317.576 68.3855C317.576 67.8072 317.672 67.2771 317.865 66.7952C318.058 66.3025 318.326 65.8849 318.668 65.5422C319.011 65.1888 319.418 64.9157 319.889 64.7229C320.361 64.5301 320.875 64.4337 321.431 64.4337C321.956 64.4337 322.438 64.5248 322.877 64.7068C323.316 64.8782 323.691 65.1352 324.002 65.4779C324.323 65.8099 324.569 66.2222 324.741 66.7149C324.912 67.1968 324.998 67.7483 324.998 68.3695V68.7711H318.925C318.947 69.0924 319.022 69.4029 319.15 69.7028C319.29 69.992 319.466 70.249 319.68 70.4739C319.895 70.6881 320.146 70.8594 320.435 70.9879C320.725 71.1165 321.041 71.1807 321.383 71.1807C321.929 71.1807 322.39 71.0843 322.765 70.8916C323.14 70.6988 323.477 70.415 323.777 70.0402L324.725 70.7791ZM323.648 67.7108C323.627 67.0683 323.418 66.5542 323.022 66.1687C322.626 65.7831 322.079 65.5904 321.383 65.5904C320.687 65.5904 320.125 65.7831 319.697 66.1687C319.268 66.5542 319.011 67.0683 318.925 67.7108H323.648Z" fill="#00334E"/>
<path d="M309.978 60H311.231V67.9357L314.652 64.6265H316.435L312.805 68.0482L316.805 72.1446H314.958L311.231 68.1928V72.1446H309.978V60Z" fill="#00334E"/>
<path d="M301.946 60H303.199V67.9357L306.62 64.6265H308.403L304.773 68.0482L308.773 72.1446H306.925L303.199 68.1928V72.1446H301.946V60Z" fill="#00334E"/>
<path d="M291.974 68.3855C291.974 67.7965 292.075 67.261 292.279 66.7791C292.482 66.2972 292.761 65.8849 293.114 65.5422C293.468 65.1888 293.891 64.9157 294.383 64.7229C294.876 64.5301 295.411 64.4337 295.99 64.4337C296.568 64.4337 297.104 64.5301 297.596 64.7229C298.089 64.9157 298.512 65.1888 298.865 65.5422C299.219 65.8849 299.497 66.2972 299.701 66.7791C299.904 67.261 300.006 67.7965 300.006 68.3855C300.006 68.9746 299.904 69.51 299.701 69.992C299.497 70.4739 299.219 70.8916 298.865 71.245C298.512 71.5877 298.089 71.8554 297.596 72.0482C297.104 72.241 296.568 72.3373 295.99 72.3373C295.411 72.3373 294.876 72.241 294.383 72.0482C293.891 71.8554 293.468 71.5877 293.114 71.245C292.761 70.8916 292.482 70.4739 292.279 69.992C292.075 69.51 291.974 68.9746 291.974 68.3855ZM293.323 68.3855C293.323 68.7818 293.382 69.1513 293.5 69.494C293.628 69.826 293.81 70.1205 294.046 70.3775C294.282 70.6238 294.56 70.822 294.881 70.9719C295.213 71.1111 295.583 71.1807 295.99 71.1807C296.397 71.1807 296.761 71.1111 297.082 70.9719C297.414 70.822 297.698 70.6238 297.933 70.3775C298.169 70.1205 298.346 69.826 298.464 69.494C298.592 69.1513 298.656 68.7818 298.656 68.3855C298.656 67.9893 298.592 67.6252 298.464 67.2932C298.346 66.9505 298.169 66.656 297.933 66.4096C297.698 66.1526 297.414 65.9545 297.082 65.8153C296.761 65.6653 296.397 65.5904 295.99 65.5904C295.583 65.5904 295.213 65.6653 294.881 65.8153C294.56 65.9545 294.282 66.1526 294.046 66.4096C293.81 66.656 293.628 66.9505 293.5 67.2932C293.382 67.6252 293.323 67.9893 293.323 68.3855Z" fill="#00334E"/>
<path d="M285.728 70.1687C285.974 70.4792 286.242 70.7256 286.531 70.9076C286.831 71.0897 287.206 71.1807 287.656 71.1807C287.849 71.1807 288.041 71.1593 288.234 71.1165C288.438 71.0736 288.62 71.004 288.78 70.9076C288.941 70.8112 289.07 70.6934 289.166 70.5542C289.262 70.4043 289.31 70.2276 289.31 70.0241C289.31 69.8206 289.262 69.6546 289.166 69.5261C289.08 69.3976 288.962 69.2905 288.812 69.2048C288.663 69.1084 288.491 69.0335 288.298 68.9799C288.106 68.9264 287.908 68.8782 287.704 68.8353C287.351 68.7604 287.013 68.6747 286.692 68.5783C286.371 68.4819 286.087 68.3588 285.841 68.2088C285.605 68.0482 285.412 67.8447 285.262 67.5984C285.123 67.3521 285.053 67.0361 285.053 66.6506C285.053 66.2865 285.134 65.9652 285.294 65.6867C285.455 65.4083 285.669 65.178 285.937 64.996C286.205 64.8139 286.505 64.6747 286.837 64.5783C287.169 64.4819 287.511 64.4337 287.865 64.4337C288.4 64.4337 288.893 64.5408 289.343 64.755C289.803 64.9692 290.162 65.3173 290.419 65.7992L289.375 66.49C289.214 66.2222 289 66.008 288.732 65.8474C288.475 65.676 288.159 65.5904 287.784 65.5904C287.613 65.5904 287.436 65.6118 287.254 65.6546C287.083 65.6975 286.928 65.7617 286.788 65.8474C286.649 65.9331 286.531 66.0455 286.435 66.1847C286.349 66.3132 286.306 66.4632 286.306 66.6345C286.306 66.7952 286.355 66.9344 286.451 67.0522C286.558 67.1593 286.697 67.2557 286.869 67.3414C287.051 67.427 287.254 67.502 287.479 67.5663C287.715 67.6305 287.956 67.6841 288.202 67.7269C288.534 67.7912 288.85 67.8768 289.15 67.9839C289.45 68.0803 289.712 68.2142 289.937 68.3855C290.162 68.5569 290.339 68.7711 290.467 69.0281C290.596 69.2851 290.66 69.6011 290.66 69.9759C290.66 70.4043 290.574 70.7684 290.403 71.0683C290.231 71.3681 290.001 71.6145 289.712 71.8072C289.434 71.9893 289.112 72.1232 288.748 72.2088C288.395 72.2945 288.031 72.3373 287.656 72.3373C287.013 72.3373 286.456 72.241 285.985 72.0482C285.525 71.8447 285.107 71.4752 284.732 70.9398L285.728 70.1687Z" fill="#00334E"/>
<path d="M272.17 66.4096C272.17 66.0669 272.159 65.7456 272.138 65.4458C272.117 65.1459 272.106 64.8728 272.106 64.6265H273.295C273.295 64.83 273.3 65.0335 273.311 65.2369C273.321 65.4404 273.327 65.6493 273.327 65.8634H273.359C273.445 65.6814 273.562 65.5047 273.712 65.3333C273.873 65.162 274.06 65.012 274.275 64.8835C274.489 64.7443 274.73 64.6372 274.997 64.5622C275.265 64.4766 275.554 64.4337 275.865 64.4337C276.358 64.4337 276.781 64.5087 277.134 64.6586C277.498 64.8086 277.798 65.0174 278.034 65.2851C278.269 65.5529 278.441 65.8795 278.548 66.2651C278.665 66.6399 278.724 67.0522 278.724 67.502V72.1446H277.471V67.6305C277.471 66.9987 277.332 66.5007 277.054 66.1365C276.775 65.7724 276.342 65.5904 275.752 65.5904C275.346 65.5904 274.992 65.66 274.692 65.7992C274.403 65.9384 274.162 66.1365 273.969 66.3936C273.787 66.6506 273.648 66.9558 273.552 67.3092C273.466 67.6626 273.423 68.0535 273.423 68.4819V72.1446H272.17V66.4096Z" fill="#00334E"/>
<path d="M269.959 70.7791C269.509 71.3574 269.016 71.7644 268.481 72C267.945 72.2249 267.324 72.3373 266.617 72.3373C266.028 72.3373 265.498 72.2356 265.027 72.0321C264.556 71.8179 264.154 71.5341 263.822 71.1807C263.501 70.8273 263.249 70.4096 263.067 69.9277C262.896 69.4458 262.81 68.9317 262.81 68.3855C262.81 67.8072 262.906 67.2771 263.099 66.7952C263.292 66.3025 263.56 65.8849 263.902 65.5422C264.245 65.1888 264.652 64.9157 265.123 64.7229C265.595 64.5301 266.109 64.4337 266.666 64.4337C267.19 64.4337 267.672 64.5248 268.111 64.7068C268.55 64.8782 268.925 65.1352 269.236 65.4779C269.557 65.8099 269.803 66.2222 269.975 66.7149C270.146 67.1968 270.232 67.7483 270.232 68.3695V68.7711H264.16C264.181 69.0924 264.256 69.4029 264.384 69.7028C264.524 69.992 264.7 70.249 264.915 70.4739C265.129 70.6881 265.38 70.8594 265.67 70.9879C265.959 71.1165 266.275 71.1807 266.617 71.1807C267.164 71.1807 267.624 71.0843 267.999 70.8916C268.374 70.6988 268.711 70.415 269.011 70.0402L269.959 70.7791ZM268.882 67.7108C268.861 67.0683 268.652 66.5542 268.256 66.1687C267.86 65.7831 267.313 65.5904 266.617 65.5904C265.921 65.5904 265.359 65.7831 264.931 66.1687C264.502 66.5542 264.245 67.0683 264.16 67.7108H268.882Z" fill="#00334E"/>
<path d="M256.454 71.8072C256.454 73.178 256.101 74.2169 255.394 74.9237C254.698 75.6412 253.686 76 252.358 76C251.619 76 250.95 75.8929 250.35 75.6787C249.761 75.4645 249.199 75.095 248.663 74.5703L249.563 73.5422C249.959 73.9705 250.377 74.2918 250.816 74.506C251.266 74.7309 251.78 74.8434 252.358 74.8434C252.915 74.8434 253.375 74.7577 253.739 74.5863C254.114 74.4257 254.409 74.2008 254.623 73.9116C254.837 73.6332 254.987 73.3119 255.073 72.9478C255.158 72.5837 255.201 72.2035 255.201 71.8072V70.8434H255.169C254.869 71.3253 254.478 71.6787 253.996 71.9036C253.515 72.1285 253.022 72.241 252.519 72.241C251.93 72.241 251.389 72.1446 250.896 71.9518C250.403 71.759 249.98 71.4913 249.627 71.1486C249.274 70.8059 249 70.3989 248.808 69.9277C248.615 69.4565 248.519 68.9424 248.519 68.3855C248.519 67.7751 248.615 67.2236 248.808 66.7309C249 66.2383 249.268 65.826 249.611 65.494C249.964 65.1513 250.387 64.8889 250.88 64.7068C251.373 64.5248 251.919 64.4337 252.519 64.4337C252.776 64.4337 253.033 64.4659 253.29 64.5301C253.547 64.5837 253.793 64.6747 254.029 64.8032C254.275 64.921 254.494 65.0763 254.687 65.2691C254.88 65.4511 255.041 65.6653 255.169 65.9116H255.201V64.6265H256.454V71.8072ZM249.868 68.3855C249.868 68.7711 249.938 69.1298 250.077 69.4618C250.216 69.7831 250.403 70.0669 250.639 70.3132C250.885 70.5489 251.169 70.7363 251.49 70.8755C251.812 71.0147 252.154 71.0843 252.519 71.0843C252.947 71.0843 253.327 71.0094 253.659 70.8594C253.991 70.7095 254.27 70.5114 254.494 70.2651C254.73 70.008 254.907 69.7189 255.025 69.3976C255.142 69.0656 255.201 68.7175 255.201 68.3534C255.201 67.9464 255.137 67.577 255.009 67.245C254.88 66.9023 254.698 66.6078 254.462 66.3614C254.227 66.1151 253.943 65.9277 253.611 65.7992C253.279 65.66 252.915 65.5904 252.519 65.5904C252.122 65.5904 251.758 65.6653 251.426 65.8153C251.105 65.9545 250.826 66.1526 250.591 66.4096C250.366 66.656 250.189 66.9505 250.061 67.2932C249.932 67.6252 249.868 67.9893 249.868 68.3855Z" fill="#00334E"/>
<path d="M240.026 66.4096C240.026 66.0669 240.015 65.7456 239.994 65.4458C239.972 65.1459 239.962 64.8728 239.962 64.6265H241.15C241.15 64.83 241.156 65.0335 241.167 65.2369C241.177 65.4404 241.183 65.6493 241.183 65.8634H241.215C241.3 65.6814 241.418 65.5047 241.568 65.3333C241.729 65.162 241.916 65.012 242.13 64.8835C242.345 64.7443 242.586 64.6372 242.853 64.5622C243.121 64.4766 243.41 64.4337 243.721 64.4337C244.213 64.4337 244.636 64.5087 244.99 64.6586C245.354 64.8086 245.654 65.0174 245.889 65.2851C246.125 65.5529 246.296 65.8795 246.403 66.2651C246.521 66.6399 246.58 67.0522 246.58 67.502V72.1446H245.327V67.6305C245.327 66.9987 245.188 66.5007 244.909 66.1365C244.631 65.7724 244.197 65.5904 243.608 65.5904C243.201 65.5904 242.848 65.66 242.548 65.7992C242.259 65.9384 242.018 66.1365 241.825 66.3936C241.643 66.6506 241.504 66.9558 241.407 67.3092C241.322 67.6626 241.279 68.0535 241.279 68.4819V72.1446H240.026V66.4096Z" fill="#00334E"/>
<path d="M236.279 64.6265H237.532V72.1446H236.279V64.6265ZM235.99 61.6868C235.99 61.4404 236.076 61.2262 236.247 61.0442C236.429 60.8621 236.649 60.7711 236.906 60.7711C237.163 60.7711 237.377 60.8621 237.548 61.0442C237.73 61.2262 237.821 61.4404 237.821 61.6868C237.821 61.9545 237.736 62.174 237.564 62.3454C237.393 62.5167 237.173 62.6024 236.906 62.6024C236.638 62.6024 236.418 62.5167 236.247 62.3454C236.076 62.174 235.99 61.9545 235.99 61.6868Z" fill="#00334E"/>
<path d="M232.58 70.8112H232.547C232.312 71.2396 231.937 71.6038 231.423 71.9036C230.92 72.1928 230.331 72.3374 229.656 72.3374C229.131 72.3374 228.638 72.241 228.178 72.0482C227.717 71.8447 227.316 71.5663 226.973 71.2129C226.641 70.8594 226.379 70.4418 226.186 69.9598C225.993 69.4779 225.897 68.9531 225.897 68.3855C225.897 67.8179 225.993 67.2932 226.186 66.8112C226.379 66.3293 226.646 65.9117 226.989 65.5582C227.332 65.2048 227.744 64.9317 228.226 64.739C228.719 64.5355 229.26 64.4337 229.849 64.4337C230.395 64.4337 230.893 64.5462 231.343 64.7711C231.803 64.996 232.205 65.3119 232.547 65.7189H232.58V60H233.833V72.1446H232.58V70.8112ZM232.58 68.3855C232.58 67.9893 232.515 67.6252 232.387 67.2932C232.269 66.9505 232.092 66.656 231.857 66.4096C231.621 66.1526 231.337 65.9545 231.005 65.8153C230.684 65.6653 230.32 65.5904 229.913 65.5904C229.506 65.5904 229.136 65.6653 228.804 65.8153C228.483 65.9545 228.205 66.1526 227.969 66.4096C227.734 66.656 227.551 66.9505 227.423 67.2932C227.305 67.6252 227.246 67.9893 227.246 68.3855C227.246 68.7818 227.305 69.1513 227.423 69.494C227.551 69.826 227.734 70.1205 227.969 70.3775C228.205 70.6238 228.483 70.822 228.804 70.9719C229.136 71.1111 229.506 71.1807 229.913 71.1807C230.32 71.1807 230.684 71.1111 231.005 70.9719C231.337 70.822 231.621 70.6238 231.857 70.3775C232.092 70.1205 232.269 69.826 232.387 69.494C232.515 69.1513 232.58 68.7818 232.58 68.3855Z" fill="#00334E"/>
<path d="M224.119 70.7791C223.669 71.3574 223.177 71.7644 222.641 72C222.106 72.2249 221.485 72.3373 220.778 72.3373C220.189 72.3373 219.659 72.2356 219.187 72.0321C218.716 71.8179 218.315 71.5341 217.983 71.1807C217.661 70.8273 217.41 70.4096 217.228 69.9277C217.056 69.4458 216.971 68.9317 216.971 68.3855C216.971 67.8072 217.067 67.2771 217.26 66.7952C217.452 66.3025 217.72 65.8849 218.063 65.5422C218.406 65.1888 218.813 64.9157 219.284 64.7229C219.755 64.5301 220.269 64.4337 220.826 64.4337C221.351 64.4337 221.833 64.5248 222.272 64.7068C222.711 64.8782 223.086 65.1352 223.396 65.4779C223.717 65.8099 223.964 66.2222 224.135 66.7149C224.307 67.1968 224.392 67.7483 224.392 68.3695V68.7711H218.32C218.341 69.0924 218.416 69.4029 218.545 69.7028C218.684 69.992 218.861 70.249 219.075 70.4739C219.289 70.6881 219.541 70.8594 219.83 70.9879C220.119 71.1165 220.435 71.1807 220.778 71.1807C221.324 71.1807 221.784 71.0843 222.159 70.8916C222.534 70.6988 222.871 70.415 223.171 70.0402L224.119 70.7791ZM223.043 67.7108C223.021 67.0683 222.813 66.5542 222.416 66.1687C222.02 65.7831 221.474 65.5904 220.778 65.5904C220.082 65.5904 219.519 65.7831 219.091 66.1687C218.663 66.5542 218.406 67.0683 218.32 67.7108H223.043Z" fill="#00334E"/>
<path d="M213.658 60H214.911V72.1446H213.658V60Z" fill="#00334E"/>
<path d="M205.513 60H206.766V67.9357L210.188 64.6265H211.971L208.34 68.0482L212.34 72.1446H210.493L206.766 68.1928V72.1446H205.513V60Z" fill="#00334E"/>
<path d="M203.962 65.6867H201.745V69.4458C201.745 69.6921 201.751 69.9224 201.761 70.1365C201.772 70.34 201.815 70.5221 201.89 70.6827C201.965 70.8327 202.077 70.9558 202.227 71.0522C202.377 71.1379 202.591 71.1807 202.87 71.1807C203.052 71.1807 203.239 71.1593 203.432 71.1165C203.625 71.0736 203.807 71.0094 203.978 70.9237L204.026 72.0643C203.812 72.1606 203.571 72.2303 203.303 72.2731C203.046 72.3159 202.8 72.3374 202.565 72.3374C202.115 72.3374 201.756 72.2784 201.488 72.1606C201.22 72.0428 201.012 71.8768 200.862 71.6627C200.712 71.4485 200.61 71.1861 200.556 70.8755C200.514 70.5542 200.492 70.2008 200.492 69.8153V65.6867H198.854V64.6265H200.492V62.49H201.745V64.6265H203.962V65.6867Z" fill="#00334E"/>
<path d="M190.923 60H192.176V65.6707H192.208C192.294 65.5208 192.412 65.3762 192.562 65.237C192.712 65.087 192.889 64.9531 193.092 64.8353C193.306 64.7175 193.542 64.6212 193.799 64.5462C194.056 64.4712 194.329 64.4337 194.618 64.4337C195.111 64.4337 195.534 64.5087 195.887 64.6586C196.251 64.8086 196.551 65.0174 196.787 65.2851C197.022 65.5529 197.194 65.8795 197.301 66.2651C197.419 66.6399 197.478 67.0522 197.478 67.502V72.1446H196.225V67.6305C196.225 66.9987 196.085 66.5007 195.807 66.1366C195.528 65.7724 195.095 65.5904 194.506 65.5904C194.099 65.5904 193.745 65.66 193.445 65.7992C193.156 65.9384 192.915 66.1365 192.723 66.3936C192.54 66.6506 192.401 66.9558 192.305 67.3092C192.219 67.6627 192.176 68.0536 192.176 68.4819V72.1446H190.923V60Z" fill="#00334E"/>
<path d="M188.523 66.506C188.255 66.1847 187.966 65.9545 187.655 65.8153C187.345 65.6653 187.002 65.5904 186.627 65.5904C186.21 65.5904 185.84 65.6653 185.519 65.8153C185.198 65.9545 184.93 66.1526 184.716 66.4096C184.512 66.6667 184.357 66.9665 184.25 67.3092C184.143 67.6412 184.089 68 184.089 68.3855C184.089 68.7711 184.148 69.1352 184.266 69.4779C184.394 69.8099 184.566 70.1044 184.78 70.3614C185.005 70.6185 185.273 70.822 185.583 70.9719C185.894 71.1111 186.242 71.1807 186.627 71.1807C187.452 71.1807 188.089 70.8701 188.539 70.249L189.471 71.1325C189.107 71.5502 188.678 71.8554 188.186 72.0482C187.693 72.241 187.174 72.3373 186.627 72.3373C186.049 72.3373 185.519 72.241 185.037 72.0482C184.555 71.8554 184.143 71.5823 183.8 71.2289C183.468 70.8755 183.206 70.4578 183.013 69.9759C182.831 69.494 182.74 68.9639 182.74 68.3855C182.74 67.8179 182.831 67.2932 183.013 66.8112C183.206 66.3293 183.473 65.9116 183.816 65.5582C184.159 65.2048 184.566 64.9317 185.037 64.739C185.519 64.5355 186.049 64.4337 186.627 64.4337C187.184 64.4337 187.709 64.5301 188.202 64.7229C188.705 64.9157 189.144 65.2155 189.519 65.6225L188.523 66.506Z" fill="#00334E"/>
<path d="M174.747 65.5904C175.133 65.1941 175.588 64.9049 176.112 64.7229C176.648 64.5301 177.189 64.4337 177.735 64.4337C178.849 64.4337 179.652 64.6961 180.145 65.2209C180.637 65.7456 180.884 66.5435 180.884 67.6145V70.8434C180.884 71.0576 180.894 71.2825 180.916 71.5181C180.937 71.743 180.964 71.9518 180.996 72.1446H179.791C179.748 71.9732 179.722 71.7858 179.711 71.5823C179.711 71.3681 179.711 71.1807 179.711 71.0201H179.679C179.432 71.4056 179.1 71.7215 178.683 71.9679C178.276 72.2142 177.783 72.3373 177.205 72.3373C176.819 72.3373 176.455 72.2892 176.112 72.1928C175.78 72.0964 175.486 71.9572 175.229 71.7751C174.983 71.5823 174.784 71.3467 174.635 71.0683C174.485 70.7898 174.41 70.4685 174.41 70.1044C174.41 69.4833 174.57 68.996 174.892 68.6426C175.213 68.2892 175.609 68.0268 176.08 67.8554C176.562 67.6841 177.076 67.577 177.622 67.5341C178.179 67.4913 178.688 67.4699 179.149 67.4699H179.631V67.245C179.631 66.6988 179.465 66.2865 179.133 66.008C178.811 65.7296 178.356 65.5904 177.767 65.5904C177.36 65.5904 176.958 65.66 176.562 65.7992C176.177 65.9277 175.834 66.1312 175.534 66.4096L174.747 65.5904ZM178.378 68.5301C177.574 68.5301 176.937 68.6426 176.466 68.8675C175.995 69.0924 175.759 69.4618 175.759 69.9759C175.759 70.4471 175.914 70.7845 176.225 70.9879C176.546 71.1807 176.942 71.2771 177.414 71.2771C177.778 71.2771 178.094 71.2182 178.361 71.1004C178.64 70.9719 178.87 70.8059 179.052 70.6024C179.234 70.3989 179.373 70.1633 179.47 69.8956C179.566 69.6171 179.62 69.3226 179.631 69.012V68.5301H178.378Z" fill="#00334E"/>
<path d="M165.917 66.4096C165.917 66.0669 165.906 65.7456 165.885 65.4458C165.863 65.1459 165.853 64.8728 165.853 64.6265H167.042C167.042 64.83 167.047 65.0335 167.058 65.2369C167.068 65.4404 167.074 65.6493 167.074 65.8634H167.106C167.191 65.6814 167.309 65.5047 167.459 65.3333C167.62 65.162 167.807 65.012 168.021 64.8835C168.236 64.7443 168.477 64.6372 168.744 64.5622C169.012 64.4766 169.301 64.4337 169.612 64.4337C170.104 64.4337 170.527 64.5087 170.881 64.6586C171.245 64.8086 171.545 65.0174 171.78 65.2851C172.016 65.5529 172.187 65.8795 172.295 66.2651C172.412 66.6399 172.471 67.0522 172.471 67.502V72.1446H171.218V67.6305C171.218 66.9987 171.079 66.5007 170.801 66.1365C170.522 65.7724 170.088 65.5904 169.499 65.5904C169.092 65.5904 168.739 65.66 168.439 65.7992C168.15 65.9384 167.909 66.1365 167.716 66.3936C167.534 66.6506 167.395 66.9558 167.299 67.3092C167.213 67.6626 167.17 68.0535 167.17 68.4819V72.1446H165.917V66.4096Z" fill="#00334E"/>
<path d="M157.859 74.3614H156.622L157.714 70.506H159.176L157.859 74.3614Z" fill="#00334E"/>
<path d="M153.403 70.8112H153.371C153.136 71.2396 152.761 71.6038 152.247 71.9036C151.744 72.1928 151.155 72.3374 150.48 72.3374C149.955 72.3374 149.462 72.241 149.002 72.0482C148.541 71.8447 148.14 71.5663 147.797 71.2129C147.465 70.8594 147.203 70.4418 147.01 69.9598C146.817 69.4779 146.721 68.9531 146.721 68.3855C146.721 67.8179 146.817 67.2932 147.01 66.8112C147.203 66.3293 147.47 65.9117 147.813 65.5582C148.156 65.2048 148.568 64.9317 149.05 64.739C149.543 64.5355 150.084 64.4337 150.673 64.4337C151.219 64.4337 151.717 64.5462 152.167 64.7711C152.627 64.996 153.029 65.3119 153.371 65.7189H153.403V60H154.657V72.1446H153.403V70.8112ZM153.403 68.3855C153.403 67.9893 153.339 67.6252 153.211 67.2932C153.093 66.9505 152.916 66.656 152.681 66.4096C152.445 66.1526 152.161 65.9545 151.829 65.8153C151.508 65.6653 151.144 65.5904 150.737 65.5904C150.33 65.5904 149.96 65.6653 149.628 65.8153C149.307 65.9545 149.029 66.1526 148.793 66.4096C148.557 66.656 148.375 66.9505 148.247 67.2932C148.129 67.6252 148.07 67.9893 148.07 68.3855C148.07 68.7818 148.129 69.1513 148.247 69.494C148.375 69.826 148.557 70.1205 148.793 70.3775C149.029 70.6238 149.307 70.822 149.628 70.9719C149.96 71.1111 150.33 71.1807 150.737 71.1807C151.144 71.1807 151.508 71.1111 151.829 70.9719C152.161 70.822 152.445 70.6238 152.681 70.3775C152.916 70.1205 153.093 69.826 153.211 69.494C153.339 69.1513 153.403 68.7818 153.403 68.3855Z" fill="#00334E"/>
<path d="M144.943 70.7791C144.493 71.3574 144.001 71.7644 143.465 72C142.93 72.2249 142.308 72.3373 141.602 72.3373C141.013 72.3373 140.483 72.2356 140.011 72.0321C139.54 71.8179 139.138 71.5341 138.806 71.1807C138.485 70.8273 138.234 70.4096 138.051 69.9277C137.88 69.4458 137.794 68.9317 137.794 68.3855C137.794 67.8072 137.891 67.2771 138.084 66.7952C138.276 66.3025 138.544 65.8849 138.887 65.5422C139.23 65.1888 139.636 64.9157 140.108 64.7229C140.579 64.5301 141.093 64.4337 141.65 64.4337C142.175 64.4337 142.657 64.5248 143.096 64.7068C143.535 64.8782 143.91 65.1352 144.22 65.4779C144.541 65.8099 144.788 66.2222 144.959 66.7149C145.13 67.1968 145.216 67.7483 145.216 68.3695V68.7711H139.144C139.165 69.0924 139.24 69.4029 139.369 69.7028C139.508 69.992 139.685 70.249 139.899 70.4739C140.113 70.6881 140.365 70.8594 140.654 70.9879C140.943 71.1165 141.259 71.1807 141.602 71.1807C142.148 71.1807 142.608 71.0843 142.983 70.8916C143.358 70.6988 143.695 70.415 143.995 70.0402L144.943 70.7791ZM143.867 67.7108C143.845 67.0683 143.636 66.5542 143.24 66.1687C142.844 65.7831 142.298 65.5904 141.602 65.5904C140.906 65.5904 140.343 65.7831 139.915 66.1687C139.487 66.5542 139.23 67.0683 139.144 67.7108H143.867Z" fill="#00334E"/>
<path d="M128.256 68.3855C128.256 67.7965 128.358 67.261 128.562 66.7791C128.765 66.2972 129.043 65.8849 129.397 65.5422C129.75 65.1888 130.173 64.9157 130.666 64.7229C131.159 64.5301 131.694 64.4337 132.272 64.4337C132.851 64.4337 133.386 64.5301 133.879 64.7229C134.371 64.9157 134.794 65.1888 135.148 65.5422C135.501 65.8849 135.78 66.2972 135.983 66.7791C136.187 67.261 136.288 67.7965 136.288 68.3855C136.288 68.9746 136.187 69.51 135.983 69.992C135.78 70.4739 135.501 70.8916 135.148 71.245C134.794 71.5877 134.371 71.8554 133.879 72.0482C133.386 72.241 132.851 72.3373 132.272 72.3373C131.694 72.3373 131.159 72.241 130.666 72.0482C130.173 71.8554 129.75 71.5877 129.397 71.245C129.043 70.8916 128.765 70.4739 128.562 69.992C128.358 69.51 128.256 68.9746 128.256 68.3855ZM129.606 68.3855C129.606 68.7818 129.665 69.1513 129.782 69.494C129.911 69.826 130.093 70.1205 130.329 70.3775C130.564 70.6238 130.843 70.822 131.164 70.9719C131.496 71.1111 131.865 71.1807 132.272 71.1807C132.679 71.1807 133.043 71.1111 133.365 70.9719C133.697 70.822 133.981 70.6238 134.216 70.3775C134.452 70.1205 134.628 69.826 134.746 69.494C134.875 69.1513 134.939 68.7818 134.939 68.3855C134.939 67.9893 134.875 67.6252 134.746 67.2932C134.628 66.9505 134.452 66.656 134.216 66.4096C133.981 66.1526 133.697 65.9545 133.365 65.8153C133.043 65.6653 132.679 65.5904 132.272 65.5904C131.865 65.5904 131.496 65.6653 131.164 65.8153C130.843 65.9545 130.564 66.1526 130.329 66.4096C130.093 66.656 129.911 66.9505 129.782 67.2932C129.665 67.6252 129.606 67.9893 129.606 68.3855Z" fill="#00334E"/>
<path d="M126.371 71.8072C126.371 73.178 126.018 74.2169 125.311 74.9237C124.615 75.6412 123.603 76 122.275 76C121.536 76 120.867 75.8929 120.267 75.6787C119.678 75.4645 119.116 75.095 118.58 74.5703L119.48 73.5422C119.876 73.9705 120.294 74.2918 120.733 74.506C121.183 74.7309 121.697 74.8434 122.275 74.8434C122.832 74.8434 123.293 74.7577 123.657 74.5863C124.031 74.4257 124.326 74.2008 124.54 73.9116C124.754 73.6332 124.904 73.3119 124.99 72.9478C125.076 72.5837 125.118 72.2035 125.118 71.8072V70.8434H125.086C124.786 71.3253 124.396 71.6787 123.914 71.9036C123.432 72.1285 122.939 72.241 122.436 72.241C121.847 72.241 121.306 72.1446 120.813 71.9518C120.321 71.759 119.898 71.4913 119.544 71.1486C119.191 70.8059 118.918 70.3989 118.725 69.9277C118.532 69.4565 118.436 68.9424 118.436 68.3855C118.436 67.7751 118.532 67.2236 118.725 66.7309C118.918 66.2383 119.185 65.826 119.528 65.494C119.882 65.1513 120.305 64.8889 120.797 64.7068C121.29 64.5248 121.836 64.4337 122.436 64.4337C122.693 64.4337 122.95 64.4659 123.207 64.5301C123.464 64.5837 123.71 64.6747 123.946 64.8032C124.192 64.921 124.412 65.0763 124.604 65.2691C124.797 65.4511 124.958 65.6653 125.086 65.9116H125.118V64.6265H126.371V71.8072ZM119.785 68.3855C119.785 68.7711 119.855 69.1298 119.994 69.4618C120.133 69.7831 120.321 70.0669 120.556 70.3132C120.803 70.5489 121.086 70.7363 121.408 70.8755C121.729 71.0147 122.072 71.0843 122.436 71.0843C122.864 71.0843 123.244 71.0094 123.576 70.8594C123.908 70.7095 124.187 70.5114 124.412 70.2651C124.647 70.008 124.824 69.7189 124.942 69.3976C125.06 69.0656 125.118 68.7175 125.118 68.3534C125.118 67.9464 125.054 67.577 124.926 67.245C124.797 66.9023 124.615 66.6078 124.38 66.3614C124.144 66.1151 123.86 65.9277 123.528 65.7992C123.196 65.66 122.832 65.5904 122.436 65.5904C122.039 65.5904 121.675 65.6653 121.343 65.8153C121.022 65.9545 120.744 66.1526 120.508 66.4096C120.283 66.656 120.106 66.9505 119.978 67.2932C119.849 67.6252 119.785 67.9893 119.785 68.3855Z" fill="#00334E"/>
<path d="M113.504 66.4096C113.504 66.0669 113.494 65.7456 113.472 65.4458C113.451 65.1459 113.44 64.8728 113.44 64.6265H114.629C114.629 64.83 114.634 65.0335 114.645 65.2369C114.656 65.4404 114.661 65.6493 114.661 65.8634H114.693C114.779 65.6814 114.897 65.5047 115.046 65.3333C115.207 65.162 115.394 65.012 115.609 64.8835C115.823 64.7443 116.064 64.6372 116.332 64.5622C116.599 64.4766 116.888 64.4337 117.199 64.4337C117.285 64.4337 117.37 64.4391 117.456 64.4498C117.542 64.4605 117.627 64.4819 117.713 64.5141L117.633 65.7831C117.419 65.7189 117.194 65.6867 116.958 65.6867C116.187 65.6867 115.625 65.9384 115.271 66.4418C114.929 66.9344 114.757 67.6145 114.757 68.4819V72.1446H113.504V66.4096Z" fill="#00334E"/>
<path d="M111.293 70.7791C110.843 71.3574 110.35 71.7644 109.815 72C109.279 72.2249 108.658 72.3373 107.951 72.3373C107.362 72.3373 106.832 72.2356 106.361 72.0321C105.89 71.8179 105.488 71.5341 105.156 71.1807C104.835 70.8273 104.583 70.4096 104.401 69.9277C104.23 69.4458 104.144 68.9317 104.144 68.3855C104.144 67.8072 104.241 67.2771 104.433 66.7952C104.626 66.3025 104.894 65.8849 105.237 65.5422C105.579 65.1888 105.986 64.9157 106.457 64.7229C106.929 64.5301 107.443 64.4337 108 64.4337C108.524 64.4337 109.006 64.5248 109.445 64.7068C109.885 64.8782 110.259 65.1352 110.57 65.4779C110.891 65.8099 111.138 66.2222 111.309 66.7149C111.48 67.1968 111.566 67.7483 111.566 68.3695V68.7711H105.494C105.515 69.0924 105.59 69.4029 105.719 69.7028C105.858 69.992 106.034 70.249 106.249 70.4739C106.463 70.6881 106.714 70.8594 107.004 70.9879C107.293 71.1165 107.609 71.1807 107.951 71.1807C108.498 71.1807 108.958 71.0843 109.333 70.8916C109.708 70.6988 110.045 70.415 110.345 70.0402L111.293 70.7791ZM110.217 67.7108C110.195 67.0683 109.986 66.5542 109.59 66.1687C109.194 65.7831 108.648 65.5904 107.951 65.5904C107.255 65.5904 106.693 65.7831 106.265 66.1687C105.836 66.5542 105.579 67.0683 105.494 67.7108H110.217Z" fill="#00334E"/>
<path d="M101.006 70.8112H100.974C100.739 71.2396 100.364 71.6038 99.8498 71.9036C99.3464 72.1928 98.7574 72.3374 98.0827 72.3374C97.5579 72.3374 97.0653 72.241 96.6048 72.0482C96.1443 71.8447 95.7427 71.5663 95.4 71.2129C95.068 70.8594 94.8056 70.4418 94.6128 69.9598C94.4201 69.4779 94.3237 68.9531 94.3237 68.3855C94.3237 67.8179 94.4201 67.2932 94.6128 66.8112C94.8056 66.3293 95.0733 65.9117 95.416 65.5582C95.7587 65.2048 96.1711 64.9317 96.653 64.739C97.1456 64.5355 97.6865 64.4337 98.2755 64.4337C98.8217 64.4337 99.3197 64.5462 99.7695 64.7711C100.23 64.996 100.632 65.3119 100.974 65.7189H101.006V60H102.259V72.1446H101.006V70.8112ZM101.006 68.3855C101.006 67.9893 100.942 67.6252 100.814 67.2932C100.696 66.9505 100.519 66.656 100.284 66.4096C100.048 66.1526 99.7641 65.9545 99.4321 65.8153C99.1108 65.6653 98.7467 65.5904 98.3397 65.5904C97.9328 65.5904 97.5633 65.6653 97.2313 65.8153C96.91 65.9545 96.6316 66.1526 96.396 66.4096C96.1603 66.656 95.9783 66.9505 95.8498 67.2932C95.732 67.6252 95.6731 67.9893 95.6731 68.3855C95.6731 68.7818 95.732 69.1513 95.8498 69.494C95.9783 69.826 96.1603 70.1205 96.396 70.3775C96.6316 70.6238 96.91 70.822 97.2313 70.9719C97.5633 71.1111 97.9328 71.1807 98.3397 71.1807C98.7467 71.1807 99.1108 71.1111 99.4321 70.9719C99.7641 70.822 100.048 70.6238 100.284 70.3775C100.519 70.1205 100.696 69.826 100.814 69.494C100.942 69.1513 101.006 68.7818 101.006 68.3855Z" fill="#00334E"/>
<path d="M85.8311 66.4096C85.8311 66.0669 85.8204 65.7456 85.7989 65.4458C85.7775 65.1459 85.7668 64.8728 85.7668 64.6265H86.9556C86.9556 64.83 86.9609 65.0335 86.9716 65.2369C86.9823 65.4404 86.9877 65.6493 86.9877 65.8634H87.0198C87.1055 65.6814 87.2233 65.5047 87.3732 65.3333C87.5339 65.162 87.7213 65.012 87.9355 64.8835C88.1497 64.7443 88.3906 64.6372 88.6584 64.5622C88.9261 64.4766 89.2153 64.4337 89.5259 64.4337C90.0185 64.4337 90.4415 64.5087 90.7949 64.6586C91.1591 64.8086 91.4589 65.0174 91.6945 65.2851C91.9301 65.5529 92.1015 65.8795 92.2086 66.2651C92.3264 66.6399 92.3853 67.0522 92.3853 67.502V72.1446H91.1323V67.6305C91.1323 66.9987 90.9931 66.5007 90.7146 66.1365C90.4362 65.7724 90.0024 65.5904 89.4134 65.5904C89.0064 65.5904 88.653 65.66 88.3532 65.7992C88.064 65.9384 87.823 66.1365 87.6303 66.3936C87.4482 66.6506 87.309 66.9558 87.2126 67.3092C87.1269 67.6626 87.0841 68.0535 87.0841 68.4819V72.1446H85.8311V66.4096Z" fill="#00334E"/>
<path d="M77.9438 72.4337C77.0763 72.4337 76.2784 72.2838 75.5502 71.9839C74.8327 71.6841 74.2062 71.2718 73.6707 70.747C73.1459 70.2115 72.7336 69.5797 72.4337 68.8514C72.1446 68.1125 72 67.3146 72 66.4578C72 65.6011 72.1446 64.8086 72.4337 64.0803C72.7336 63.3414 73.1459 62.7095 73.6707 62.1847C74.2062 61.6493 74.8327 61.2316 75.5502 60.9317C76.2784 60.6319 77.0763 60.4819 77.9438 60.4819C78.8112 60.4819 79.6037 60.6319 80.3213 60.9317C81.0495 61.2316 81.676 61.6493 82.2008 62.1847C82.7363 62.7095 83.1486 63.3414 83.4377 64.0803C83.7376 64.8086 83.8875 65.6011 83.8875 66.4578C83.8875 67.3146 83.7376 68.1125 83.4377 68.8514C83.1486 69.5797 82.7363 70.2115 82.2008 70.747C81.676 71.2718 81.0495 71.6841 80.3213 71.9839C79.6037 72.2838 78.8112 72.4337 77.9438 72.4337ZM77.9438 71.1807C78.6078 71.1807 79.2129 71.0576 79.759 70.8112C80.3159 70.5649 80.7925 70.2276 81.1888 69.7992C81.585 69.3708 81.8902 68.8728 82.1044 68.3052C82.3293 67.7269 82.4418 67.1111 82.4418 66.4578C82.4418 65.8046 82.3293 65.1941 82.1044 64.6265C81.8902 64.0482 81.585 63.5448 81.1888 63.1165C80.7925 62.6881 80.3159 62.3507 79.759 62.1044C79.2129 61.8581 78.6078 61.7349 77.9438 61.7349C77.2798 61.7349 76.6693 61.8581 76.1124 62.1044C75.5663 62.3507 75.095 62.6881 74.6988 63.1165C74.3025 63.5448 73.992 64.0482 73.7671 64.6265C73.5529 65.1941 73.4458 65.8046 73.4458 66.4578C73.4458 67.1111 73.5529 67.7269 73.7671 68.3052C73.992 68.8728 74.3025 69.3708 74.6988 69.7992C75.095 70.2276 75.5663 70.5649 76.1124 70.8112C76.6693 71.0576 77.2798 71.1807 77.9438 71.1807Z" fill="#00334E"/>
</svg>
