<svg width="100" height="100" viewBox="0 0 100 100" fill="none" xmlns="http://www.w3.org/2000/svg">
<rect width="100" height="100" fill="black"/>
<path d="M16 32V40.4972V40.5028H23.6566C23.6566 40.5028 27.1395 40.7749 27.1395 44.2871V55.6173C27.1395 58.9287 24.0565 59.3696 24.0565 59.3696H16V68H82.9944V52.2683H66.1445L66.1296 55.4578C66.1334 54.8593 66.4204 58.8199 62.8411 59.3621C59.236 59.3621 47.3632 59.3415 47.3632 59.3415L47.3428 54.8386L62.4986 54.8593V45.3959L47.3613 45.3752L47.3817 40.5985H63.0392C63.0392 40.5985 66.2 41.0131 66.1593 44.7655L66.1796 47.6886L83 47.6642V32H16Z" fill="white"/>
</svg>
