<svg width="100" height="100" viewBox="0 0 100 100" fill="none" xmlns="http://www.w3.org/2000/svg">
<rect width="100" height="100" fill="#0E2153"/>
<path fill-rule="evenodd" clip-rule="evenodd" d="M19.2732 33.8919L19.0155 44.363C19.0155 44.3821 18.9806 46.8974 19.0155 47.1388V47.1466C19.0642 47.5037 19.4462 47.7766 19.7969 47.8204C20.0082 47.8428 20.2212 47.8462 20.4332 47.8305C20.6484 47.8177 20.8549 47.7435 21.0265 47.6171C21.2897 47.4173 21.4674 47.1307 21.5257 46.812C21.5883 46.5164 21.6206 46.2155 21.6221 45.9137C21.6221 45.9137 21.6825 33.4495 21.6825 33.3495C21.6825 32.9273 21.4897 32.7465 21.2262 32.6926C21.143 32.6757 21.0576 32.6711 20.9731 32.6791C20.5725 32.7173 19.2593 32.9172 19.2732 33.8919Z" fill="white"/>
<path fill-rule="evenodd" clip-rule="evenodd" d="M33.9323 37.9727C33.3099 36.4624 31.4197 31.635 30.9204 31.2678C30.7423 31.1407 30.5265 31.0726 30.3051 31.0736C30.3051 31.0736 28.7829 31.0432 28.4323 32.2043C28.3162 32.5816 24.1363 45.541 24.1444 45.9037C23.7717 47.3545 25.1789 47.203 25.9464 46.8515C26.1168 46.7709 26.2677 46.6565 26.3892 46.5156C26.5106 46.3747 26.5999 46.2106 26.6512 46.034C27.0529 44.7022 27.2561 42.9595 28.149 42.4598C28.985 41.9938 30.9355 41.9668 32.0455 42.3475C32.6261 42.544 32.9222 43.3132 33.0905 43.7949C33.1532 43.9712 33.1962 44.1318 33.2461 44.2767C33.3329 44.5412 33.5077 44.7706 33.7433 44.929C33.979 45.0874 34.2622 45.166 34.5488 45.1525H34.5964C36.7386 44.9077 36.1337 43.5602 36.1337 43.5602L33.9323 37.9727ZM31.8052 39.0394C31.9828 39.6436 31.6519 40.0108 31.0853 39.9434L29.3948 39.7716C28.4265 39.6952 28.5495 39.0316 28.5913 38.761C28.5913 38.761 29.0558 35.8201 29.7733 35.6168C29.7733 35.6146 30.6267 35.0419 31.8052 39.0394Z" fill="white"/>
<path fill-rule="evenodd" clip-rule="evenodd" d="M42.1842 34.8859C42.0924 34.839 41.9924 34.8089 41.8893 34.7971C41.4005 34.7455 41.0835 35.1621 41.0952 35.6562L41.1486 42.5822C41.1376 42.8503 41.0513 43.1104 40.8989 43.3346C40.4589 43.9859 39.5347 44.0353 39.5347 44.0353C39.2585 44.0545 38.9852 43.9709 38.7707 43.8017C38.5385 43.622 38.4874 43.22 38.4874 43.22C38.2378 40.9271 38.3492 37.089 38.2656 30.657C38.2692 30.4017 38.3621 30.1551 38.5292 29.9574C38.5292 29.9574 39.6043 28.7469 40.8304 29.7968C40.8653 29.826 40.8989 29.8575 40.9315 29.8889C41.3877 30.3314 44.7734 33.9314 45.4886 33.7966C46.2038 33.6619 48.9301 29.4701 50.2839 27.7565C50.9062 26.9705 51.8176 26.9503 52.3795 27.0323C52.8869 27.1064 53.0648 27.7172 53.0762 27.7801V27.7891C53.4013 29.3207 53.2877 37.1912 53.4722 40.2533C53.5233 41.1101 53.3132 41.4357 52.3565 41.6648C52.1328 41.7159 51.9051 41.75 51.676 41.767C51.4394 41.751 51.2124 41.6696 51.0222 41.5323C50.6961 41.2954 50.6311 40.9035 50.6321 40.4993C50.6321 39.3236 50.4104 34.9308 50.364 34.2379C50.3107 33.462 49.8078 33.4575 49.5154 33.5732C49.3284 33.6511 49.1674 33.7778 49.0509 33.9392L46.961 36.2625C46.6567 36.5553 46.2638 36.7469 45.8395 36.8097C45.4152 36.8725 44.9814 36.8032 44.6005 36.6117L42.1842 34.8859Z" fill="white"/>
<path fill-rule="evenodd" clip-rule="evenodd" d="M28.61 52.1966C28.6495 52.5852 28.646 53.3902 29.583 53.489C29.9567 53.5439 30.3385 53.4698 30.6616 53.2803C30.921 53.1098 31.1072 52.8539 31.1853 52.5605C31.3281 52.0494 31.3943 50.2023 29.3113 49.4948C29.1952 49.4499 27.9041 49.0199 26.1625 49.2703C25.5343 49.3651 24.9187 49.5262 24.3268 49.7509C24.1039 49.8407 21.0166 50.9355 19.6477 54.1303C19.6105 54.2167 19.5746 54.3053 19.5397 54.3952C19.1527 55.389 18.9864 56.4504 19.0516 57.5103C19.1169 58.5703 19.4121 59.6053 19.9182 60.5475C20.4906 61.5862 21.3741 62.433 22.4529 62.9775C24.011 63.7489 27.9099 64.4094 30.4643 61.8939C32.4729 59.9166 31.9562 58.4678 30.7534 58.3006C30.496 58.2691 30.2348 58.3158 30.006 58.434C29.7772 58.5523 29.5921 58.7363 29.4762 58.961C29.0605 59.7345 28.6309 61.1932 26.4435 61.4235C25.3439 61.5358 24.3767 61.5244 23.0903 60.5947C22.1916 59.9469 21.8561 58.8688 21.6738 58.0839C21.2651 56.3177 21.8085 54.4905 23.1832 53.0444C24.364 51.8003 26.1126 51.4935 26.5085 51.4398C26.5062 51.4419 28.5055 51.1837 28.61 52.1966Z" fill="white"/>
<path fill-rule="evenodd" clip-rule="evenodd" d="M59.6168 55.0576C59.0467 54.185 57.8079 52.5871 58.4036 51.3599C58.8527 50.4324 59.2523 49.3926 58.9839 47.4982C58.8272 46.3641 58.6045 45.7319 58.2689 45.0514C57.9989 44.5122 57.5832 44.0537 57.0659 43.7241C56.6956 43.5141 56.0826 43.4064 55.6622 43.3929C55.0878 43.3793 54.5132 43.4173 53.946 43.5063C49.0475 44.3238 49.1592 46.1709 49.1718 46.8166C49.3843 57.3416 49.2566 56.5746 49.2683 57.1092C49.2774 57.5583 49.2683 57.9928 49.3913 58.2771C49.5282 58.5981 49.8337 58.9102 50.5663 58.7632C51.6518 58.5465 51.8643 58.2018 51.9596 57.7638C52.0488 57.373 51.941 56.5141 51.9142 55.8291C51.8807 54.9217 51.7773 54.1918 52.1046 53.847C52.4831 53.4473 53.0337 53.3822 54.4269 53.1733C55.8202 52.9646 55.7865 53.8032 56.3844 54.96C56.7398 55.6449 56.9962 56.1301 57.2065 56.4792C57.6767 57.2595 58.0599 57.3203 59.0571 57.136C59.8514 56.9891 60.3343 56.6511 60.2542 56.248C60.1624 55.7764 59.7329 55.2362 59.6168 55.0576ZM55.9328 50.0045C55.1617 50.6783 54.7357 50.7737 52.9488 51.0151C52.2614 51.1061 51.8366 51.0634 51.7262 50.2235C51.6158 49.3836 51.6773 48.3381 51.6553 47.7868C51.6332 47.2354 51.6253 46.6111 52.9419 46.2226C53.4061 46.0934 53.8818 46.0062 54.3629 45.9621C54.5834 45.9282 54.8086 45.9368 55.0256 45.9872C55.2426 46.0377 55.4469 46.1291 55.6275 46.2563C56.1034 46.6055 56.3936 47.058 56.4774 47.8609C56.6073 49.0905 56.3043 49.6823 55.9328 50.0012V50.0045Z" fill="white"/>
<path fill-rule="evenodd" clip-rule="evenodd" d="M43.9503 47.4129C41.1916 45.8543 37.6608 46.4832 35.5047 48.7604C34.5514 49.771 33.7561 51.2027 33.3834 53.243C32.3721 58.5296 36.4301 60.8787 39.01 60.9383C41.4227 60.9954 46.1877 59.8031 46.9888 53.7911C47.5798 49.3522 43.9503 47.4129 43.9503 47.4129ZM40.2848 49.2601C40.2848 49.2601 44.697 48.8581 44.5564 53.7887C44.5053 55.5662 43.0308 58.6802 39.4013 58.4129C34.6896 58.0669 35.7206 53.7035 35.7206 53.7035C36.927 49.0748 40.2848 49.2601 40.2848 49.2601Z" fill="white"/>
<path fill-rule="evenodd" clip-rule="evenodd" d="M69.3439 70.8C70.2345 71.3972 71.7078 70.6978 71.7426 69.5478L71.7044 61.3349C71.7041 61.2186 71.746 61.1061 71.8227 61.017C71.8995 60.9276 72.0064 60.8674 72.1247 60.8465L77.454 59.7919C77.9428 59.6675 78.4048 59.1184 78.4572 58.6141L79.0469 52.5256C79.0772 52.2956 78.7555 51.6543 78.0705 51.5724C77.5155 51.5264 76.9721 51.5938 76.8826 52.2114C76.7864 52.4247 76.5691 55.1072 76.3764 56.6603C76.3432 56.9259 76.2227 57.1743 76.0325 57.3687C75.8422 57.5629 75.5925 57.6929 75.32 57.7394C73.6189 58.0347 70.109 58.777 70.109 58.777C68.739 59.1845 69.1651 61.8222 69.1465 62.9923C69.1465 63.0698 69.2521 66.9067 69.2254 66.9808C69.1686 67.1369 69.027 67.3178 68.682 67.0786C68.2547 66.7798 63.4571 62.7272 61.5936 61.3136C61.0433 60.8959 60.3373 60.6601 59.6513 60.7892C49.0855 62.7948 42.2002 64.36 38.6148 65.018C37.4224 65.2371 36.8988 67.6962 38.1969 67.4761C38.5719 67.4132 53.6983 64.4834 58.6005 63.4908H58.6154C58.948 63.4296 59.2902 63.4397 59.6181 63.5201C59.9462 63.6007 60.252 63.7499 60.5139 63.9569L69.3439 70.8Z" fill="white"/>
<path fill-rule="evenodd" clip-rule="evenodd" d="M71.325 41.4426C71.542 42.7755 70.5007 42.9451 70.5007 42.9451C70.5007 42.9451 65.9318 43.7693 65.6902 43.8524C64.6268 44.0657 64.4597 44.7945 64.4411 45.7366C64.4225 46.6787 64.6013 47.5535 65.7855 47.3996C65.8842 47.3996 69.0715 46.8472 69.0715 46.8472C69.9224 46.7079 70.6306 46.5103 70.7212 47.7196C70.8223 49.0525 69.7019 48.8718 65.9863 49.4961C64.5502 49.7375 64.8823 52.0315 65.0668 52.7941C65.1238 53.0309 65.3291 53.1152 65.5811 53.1309C66.9233 53.2433 70.4937 52.0519 71.3957 52.1584C72.7066 52.3111 72.601 54.5267 71.613 54.7211C71.454 54.7513 64.3133 56.1538 64.0289 56.2011C62.5669 56.44 62.5786 55.2869 62.5786 55.2869C62.5451 54.8254 62.1339 44.1702 62.1084 43.9613C62.1084 43.0518 62.0005 42.1265 63.512 41.8401C63.512 41.8401 65.6426 41.391 70.5089 40.56C70.5089 40.56 71.1544 40.3916 71.325 41.4426Z" fill="white"/>
</svg>
