<svg width="100" height="100" viewBox="0 0 100 100" fill="none" xmlns="http://www.w3.org/2000/svg">
<rect width="100" height="100" fill="white"/>
<path fill-rule="evenodd" clip-rule="evenodd" d="M34.2741 43.4029C34.3777 43.3521 34.4799 43.3001 34.5834 43.2493C34.7133 43.1969 34.7639 43.0936 34.7376 42.9411V42.4794C34.7175 42.0374 34.9235 41.7818 35.3562 41.7094C35.5725 41.3723 35.7269 41.0116 35.8197 40.6313C35.8444 40.3187 35.8199 40.0103 35.7426 39.7069C35.2218 39.4082 35.0936 38.9971 35.3562 38.4752L35.4974 38.3759C35.7741 38.1593 35.6752 38.0382 35.202 38.0125C35.1773 37.6492 35.2018 37.2901 35.2791 36.9344C35.4058 36.7314 35.585 36.6288 35.8197 36.6272C35.9232 36.6272 35.9748 36.5758 35.9748 36.4727C35.984 36.3018 36.0348 36.1479 36.129 36.0109C36.316 35.8984 36.5218 35.8456 36.7475 35.8564C36.6827 35.5054 36.7848 35.2481 37.0568 35.0864C37.2097 35.1125 37.3136 35.0621 37.3661 34.9328C37.5145 34.4985 37.8232 34.2934 38.2931 34.3165C38.6826 34.1255 39.0958 33.9458 39.5302 33.7779C39.3215 33.5253 39.3476 33.2942 39.6073 33.0848C39.6382 33.3557 39.715 33.6115 39.8386 33.8547C39.9422 33.3189 40.0444 32.806 40.1479 32.3148C40.3534 32.007 40.6117 31.7497 40.9207 31.5449C40.9717 31.5449 41.0247 31.544 41.0757 31.544C41.2873 31.3886 41.4927 31.2346 41.6934 31.0823C41.8774 30.7003 42.1869 30.5465 42.6213 30.6205H42.7755C43.1619 30.4865 43.5752 30.3832 44.0126 30.3123C44.0126 30.2092 44.0634 30.1588 44.1668 30.1587V30.0042H46.3309C46.6401 30.055 46.9496 30.1079 47.2588 30.1587V29.696H48.0316C48.186 29.593 48.3406 29.4918 48.495 29.3887C48.5476 29.2594 48.6514 29.2081 48.8043 29.2342C49.5494 29.3097 50.2713 29.413 50.9684 29.5424V29.696H52.3598C52.4293 29.8439 52.533 29.9717 52.6691 30.081C53.0105 30.1103 53.3195 30.1877 53.596 30.3123V30.4677C53.783 30.58 53.9891 30.6312 54.2146 30.6205C54.6767 30.9284 55.1929 31.0822 55.7601 31.0823C56.2687 31.3318 56.6819 31.6921 56.9973 32.1603H57.3057C57.3057 32.2379 57.3349 32.2863 57.3932 32.3053L57.4608 32.3148L57.9615 32.686C58.129 32.8142 58.2973 32.947 58.4657 33.0848C58.5398 33.231 58.566 33.385 58.5428 33.5466V33.7002H58.697C58.7728 34.1607 58.9786 34.5724 59.3156 34.9328C59.8504 34.9744 60.3143 35.1281 60.7069 35.3946H60.8611C61.0868 35.3838 61.2927 35.4367 61.4797 35.5491C61.6915 35.5244 61.8989 35.5504 62.0983 35.6259C62.2034 36.2294 62.5652 36.4607 63.1803 36.319C63.1217 36.6576 63.2246 36.9134 63.4887 37.0889C63.4887 37.1397 63.4896 37.1919 63.4896 37.2426C63.6031 37.2885 63.6561 37.3736 63.6499 37.4964L63.6438 37.5507L63.6889 37.5732C63.7851 37.6301 63.821 37.7256 63.798 37.8589C64.0685 38.1284 64.3781 38.3335 64.7259 38.4752C64.6533 38.9154 64.8078 39.2232 65.1894 39.3988V39.8605C65.1894 40.0654 65.2931 40.1687 65.4986 40.1687H66.1172C66.0925 40.4813 66.117 40.7897 66.1943 41.0931C66.253 41.1793 66.3307 41.2298 66.4265 41.2468V41.4013C66.445 41.7446 66.3935 42.0792 66.2714 42.4025C66.3579 42.558 66.4602 42.6859 66.5807 42.7875H66.7349C66.8879 42.7613 66.9916 42.8119 67.0442 42.9411L67.2079 42.9627C67.9964 43.0947 68.3287 43.6003 68.2042 44.481C68.3603 44.6103 68.5408 44.6617 68.7448 44.6355V45.5591C69.2085 45.5083 69.4144 45.7134 69.3634 46.1754C69.5087 46.8792 69.5593 47.5985 69.5176 48.3315C69.5701 48.4609 69.6738 48.5114 69.8269 48.4852C70.0788 48.9749 70.131 49.4884 69.9811 50.0259C70.0846 50.0259 70.1361 50.0764 70.1361 50.1796C70.4591 50.8202 70.2518 51.1286 69.5176 51.104V51.8739C69.2426 52.0541 69.0881 52.3113 69.0541 52.6439C69.3462 52.6131 69.5782 52.7149 69.7498 52.952C69.827 53.2629 69.9038 53.5708 69.9811 53.8756C70.1836 54.5717 70.1835 55.2894 69.9811 56.0317C69.8095 56.4598 69.5007 56.717 69.0541 56.8017C68.8609 57.1759 68.6289 57.5364 68.3584 57.8798C68.2807 57.9664 68.1891 58.0174 68.0829 58.0317L67.972 58.0343L67.8559 58.0325C67.5915 58.0417 67.3724 58.1443 67.1993 58.3424V58.4961H66.7349C66.7859 58.8041 66.839 59.1125 66.89 59.4205H66.4265C66.4634 59.6189 66.4104 59.773 66.2714 59.8823C66.1168 60.1394 65.9109 60.3446 65.6528 60.4986C65.4814 60.62 65.276 60.6967 65.0351 60.729C65.2932 60.7798 65.5498 60.8327 65.8079 60.8835C65.0088 61.0899 64.1847 61.2177 63.3345 61.2685C63.3607 61.4716 63.31 61.6517 63.1803 61.8071C61.7845 61.7147 60.3929 61.7407 59.0063 61.8839C58.9893 61.9794 58.9386 62.0568 58.8521 62.1153C57.7701 62.1661 56.6879 62.2181 55.6059 62.2689C55.4144 62.3043 55.2599 62.3818 55.1425 62.5002H54.6781C53.7307 62.471 52.8035 62.3676 51.8963 62.1921C51.9302 62.0105 51.8787 61.8565 51.7412 61.7303C51.6206 62.0352 51.4148 62.163 51.1226 62.1153C50.9572 61.6671 50.6992 61.2822 50.3499 60.9604C49.9774 60.6724 49.6171 60.3395 49.2678 59.9591C48.9355 59.742 48.5752 59.6142 48.1858 59.5741C47.7392 59.6218 47.3281 59.5698 46.9495 59.4205L46.8438 59.4006C46.6056 59.3428 46.4338 59.1951 46.3309 58.9578L46.1516 58.9794C45.7408 59.0058 45.3882 58.8694 45.0947 58.5729C44.7531 58.5436 44.4435 58.4672 44.1668 58.3424C44.0124 58.2916 43.9086 58.1882 43.8575 58.0343C43.5238 58.0003 43.2656 57.8457 43.0848 57.5716C42.8639 57.4823 42.6586 57.3529 42.4671 57.1866C42.3511 57.0835 42.2981 56.9557 42.312 56.8017C41.9952 56.5892 41.737 56.332 41.5392 56.0317C41.4257 55.9859 41.3721 55.9014 41.3781 55.7788L41.385 55.7236L41.249 55.6675C40.5887 55.3724 40.1705 54.8781 39.9937 54.1837H39.5302C39.2288 53.7248 39.0736 53.2106 39.0658 52.6439H39.2209V52.4894C39.1452 52.1337 39.0921 51.7746 39.0658 51.4113C38.7011 51.3851 38.3408 51.3331 37.9838 51.2576V51.104C37.9061 51.1039 37.8582 51.0748 37.8391 51.0168L37.8296 50.9495L37.7802 50.8856C37.6744 50.7327 37.638 50.5488 37.6745 50.3332C37.1908 50.4239 36.8304 50.2702 36.5925 49.8714C36.353 49.6543 36.1463 49.397 35.9748 49.1015L35.8205 48.7312C35.7689 48.6027 35.7173 48.4694 35.6655 48.3315C35.4769 48.5179 35.2956 48.5179 35.124 48.3315C35.066 48.104 35.0384 47.8738 35.0382 47.641L35.0469 47.4071L34.9395 47.3553C34.7047 47.2219 34.5861 47.0078 34.5834 46.714C34.6514 46.4338 34.7036 46.1505 34.7376 45.8672C34.6866 45.7641 34.6344 45.6622 34.5834 45.5591C34.4876 45.4944 34.4345 45.3926 34.4283 45.2509C34.8179 44.8921 34.9216 44.4812 34.7376 44.0192C34.3653 43.9899 34.2108 43.7832 34.2741 43.4029ZM39.9937 42.3248C40.0833 42.6189 40.2378 42.8761 40.4572 43.0948C40.6009 43.2595 40.6539 43.4647 40.6123 43.7111H41.23V43.5574C41.3227 43.4589 41.451 43.4076 41.6163 43.4029C42.0167 43.6324 42.4545 43.7342 42.9306 43.7111C43.0341 43.7619 43.1363 43.8148 43.2399 43.8656C43.5814 43.9271 43.9417 43.9516 44.3219 43.9424C44.4578 44.0517 44.5617 44.1796 44.6312 44.3274C44.7344 44.3275 44.7853 44.3781 44.7854 44.481L45.1752 44.475C46.077 44.4875 46.9257 44.6944 47.7223 45.0973C48.1226 45.2482 48.5343 45.2987 48.9594 45.2509H49.1136C49.4134 45.3079 49.6962 45.4113 49.9635 45.5591C50.1042 45.9919 49.9759 46.3003 49.5771 46.4835C49.577 46.5865 49.5263 46.6371 49.4229 46.6372C49.123 46.7373 48.8135 46.7886 48.495 46.7917C48.047 46.9303 47.6358 47.1346 47.2588 47.4071C46.9249 47.7906 46.5132 48.0477 46.0217 48.177L46.0208 48.1779C45.7503 48.5116 45.4012 48.671 44.9734 48.6561L44.7854 48.6397C44.6309 48.7428 44.4764 48.8447 44.3219 48.9478C44.1828 49.0572 44.1297 49.211 44.1668 49.4096H43.0848L42.7755 49.7178C42.7011 49.9911 42.5347 50.1429 42.2748 50.1735L42.1578 50.1796C41.9198 50.2812 41.6616 50.3845 41.385 50.4877C41.8904 50.6401 42.4051 50.6906 42.9306 50.6413C43.0341 50.5906 43.1364 50.5385 43.2399 50.4877C43.5737 50.3907 43.8318 50.1855 44.0126 49.8714C44.4252 49.9222 44.8363 49.9751 45.2489 50.0259C45.6106 49.7102 45.9708 49.4018 46.3309 49.1015L46.5415 48.8788C46.7588 48.6661 46.9979 48.484 47.2588 48.3315C47.5107 48.2222 47.7182 48.0431 47.8774 47.7921C48.0241 47.7183 48.1787 47.6922 48.3408 47.7153V48.177C48.6514 48.1939 48.9096 48.0914 49.1136 47.8698C49.1136 47.6906 49.1927 47.5885 49.3501 47.5659L49.4229 47.5616L49.5087 47.3812C49.6043 47.2096 49.7299 47.0643 49.8864 46.9453C49.9779 46.8415 50.0877 46.7576 50.2156 46.6941L50.3499 46.6372L50.3724 46.5923C50.4295 46.4965 50.5254 46.4607 50.6592 46.4835C51.1227 46.4327 51.3286 46.6372 51.2777 47.099V48.3315H51.1235L51.133 48.404C51.1459 48.568 51.0901 48.6977 50.9684 48.7933C51.0519 49.5588 50.9482 50.2765 50.6592 50.9495C50.7086 51.5962 50.6564 52.2123 50.505 52.7975C50.3566 52.8668 50.2283 52.9702 50.1186 53.1057C50.083 53.734 50.0054 54.35 49.8864 54.9537C49.8632 55.1152 49.8895 55.2693 49.9635 55.4155C50.1196 55.2861 50.3009 55.2356 50.505 55.2618V54.4919C50.9809 54.5411 51.3413 54.3873 51.587 54.0301C51.2964 53.7914 51.1412 53.483 51.1226 53.1057H51.2777V52.6439C51.4771 52.6808 51.6315 52.6279 51.7412 52.4894C51.7659 52.2786 51.7397 52.0724 51.6641 51.8739C51.222 51.6029 51.1975 51.2685 51.587 50.8727C51.1805 50.2628 51.1805 49.6729 51.587 49.1015C51.315 48.9398 51.2128 48.6827 51.2777 48.3315H52.3598C52.6194 48.4363 52.7216 48.643 52.6691 48.9478H53.4418C53.3677 49.4544 53.5221 49.8639 53.9053 50.1796C54.0104 50.4737 54.088 50.7821 54.1375 51.104C54.6644 51.5229 54.7928 52.0372 54.5239 52.6439H55.1425C55.1177 52.9056 55.1438 53.1628 55.2196 53.4138C55.8222 53.7341 56.0804 54.2469 55.9923 54.9537C56.2458 55.314 56.4778 55.6729 56.688 56.0317C56.943 56.1827 57.1489 56.3878 57.3066 56.648C57.3575 56.5973 57.4098 56.5443 57.4608 56.4935C57.2631 56.0117 57.2631 55.55 57.4608 55.1082L57.5058 55.0857C57.6021 55.0288 57.6379 54.9333 57.615 54.8C57.2612 54.6491 57.0045 54.3918 56.8422 54.0301C56.6954 53.8115 56.6448 53.5542 56.688 53.2602C56.6447 52.966 56.6954 52.7081 56.8422 52.4894C56.8467 52.3357 56.7697 52.2344 56.6109 52.1821C56.4115 52.2514 56.2317 52.3539 56.0694 52.4894C55.9259 52.3062 55.8751 52.1017 55.9152 51.8739C56.1177 51.5444 56.0647 51.2359 55.7601 50.9495H55.6059C55.4221 50.831 55.2676 50.677 55.1425 50.4877L54.8791 50.2339C54.275 49.6298 53.744 48.9439 53.2868 48.177C53.3347 48.0525 53.4124 47.9513 53.5189 47.8698C53.8898 48.1022 54.2763 48.3081 54.6781 48.4852C54.6781 48.5884 54.7296 48.6397 54.8332 48.6397C55.0634 48.9059 55.3724 49.0599 55.7601 49.1015C55.8112 49.2555 55.9149 49.3588 56.0694 49.4096V49.5633C56.4156 49.8435 56.7759 50.1007 57.1515 50.3332C57.2674 50.4918 57.3711 50.6725 57.4608 50.8727C57.7019 50.905 57.9078 50.9823 58.0793 51.104C58.8644 51.7831 59.5866 52.5017 60.2434 53.2593C60.7194 53.5457 61.1827 53.8542 61.6339 54.1837C61.7296 54.2007 61.8074 54.2513 61.8661 54.3374C61.9078 54.0912 61.9855 53.8606 62.0983 53.6451C61.8525 53.4988 61.6451 53.3182 61.4797 53.1057L61.1973 52.7707C60.5301 51.9979 59.8002 51.2882 59.0063 50.6413C58.6587 50.552 58.4005 50.3476 58.2335 50.0259C57.9214 49.5609 57.5087 49.2019 56.9973 48.9478C56.8937 48.9478 56.8422 48.8965 56.8422 48.7933C56.6042 48.6702 56.346 48.6197 56.0694 48.6397C56.1514 47.8219 55.7896 47.463 54.9874 47.5616C54.8483 47.4523 54.7961 47.2976 54.8332 47.099C54.5147 47.0959 54.2052 47.0454 53.9053 46.9453C53.7663 46.836 53.7141 46.6821 53.7511 46.4835C54.3491 46.4358 54.9162 46.4863 55.4509 46.6372C55.7538 46.7896 56.0634 46.9434 56.3787 47.099C57.1174 47.159 57.7865 47.3643 58.3877 47.7153H58.5428C58.8056 47.7445 59.0115 47.8723 59.1614 48.1002C59.4133 48.1756 59.6715 48.2017 59.9342 48.177C59.9512 48.2725 60.0019 48.3499 60.0884 48.4084C60.6292 48.4546 61.1456 48.584 61.6339 48.7933C61.6339 48.8965 61.6854 48.9478 61.789 48.9478V49.1015C61.9544 49.2447 62.1603 49.2967 62.4075 49.2551V49.8714C62.8479 49.7545 63.2606 49.7544 63.6438 49.8714C64.1972 49.9068 64.6611 50.1119 65.0351 50.4877C65.5884 50.2799 66.1031 50.3319 66.5807 50.6413C66.7724 50.7815 66.9782 50.8075 67.1993 50.7182C66.921 50.6196 66.7136 50.4414 66.5807 50.1796C66.2314 50.0379 65.8712 49.9346 65.4986 49.8714C65.3117 49.8329 65.2079 49.7311 65.1894 49.5633C64.6917 49.477 64.3314 49.2199 64.1073 48.7933C63.9019 48.6902 63.695 48.5883 63.4896 48.4852H63.0252V47.8698H62.4075C62.1077 47.9699 61.7981 48.0203 61.4797 48.0234C61.3406 47.9141 61.2884 47.7602 61.3255 47.5616C60.8958 47.5955 60.4825 47.5442 60.0884 47.4071C59.6279 47.3455 59.2168 47.1917 58.8521 46.9453C58.7995 46.816 58.6958 46.7655 58.5428 46.7917C58.0807 47.0827 57.7711 46.9794 57.615 46.4835C57.5116 46.4834 57.4608 46.4321 57.4608 46.329L57.1498 46.3385C56.8396 46.3384 56.5316 46.3099 56.2245 46.2522C56.1381 46.1938 56.0865 46.117 56.0694 46.0217L56.0686 46.0209C55.6811 45.9791 55.3726 45.8252 55.1425 45.5591C55.2813 45.4498 55.3337 45.2958 55.2967 45.0973C55.4959 45.1342 55.6504 45.082 55.7601 44.9437C56.1357 45.0022 56.496 45.1047 56.8422 45.2509C57.0169 45.2833 57.1574 45.2474 57.2632 45.1448L57.3066 45.0973L57.5448 45.0213C58.1061 44.8576 58.6961 44.7811 59.3156 44.7892C59.3156 44.6862 59.3665 44.6356 59.4698 44.6355H59.7791C60.4127 44.6755 61.0312 44.6242 61.6339 44.481V44.1729C61.8842 44.0897 62.141 44.0393 62.4067 44.0192L62.5886 43.8828C63.0231 43.5869 63.5297 43.4537 64.1073 43.4806C64.1784 43.4175 64.2299 43.3402 64.2624 43.2493C64.0785 43.1061 63.8725 43.0548 63.6438 43.0948H63.4896C63.2856 43.2657 63.0536 43.2657 62.7939 43.0948C62.5946 43.3796 62.3625 43.4324 62.0983 43.2493C61.7999 43.4587 61.4904 43.6125 61.1704 43.7111H60.2434C59.5819 43.9359 58.9121 44.0897 58.2335 44.1729H57.1515L56.5468 44.3369C56.3406 44.3883 56.1301 44.4363 55.9152 44.481C55.9152 44.5842 55.8637 44.6355 55.7601 44.6355H52.9783C52.8748 44.6355 52.8233 44.5842 52.8233 44.481L52.8285 44.3231C52.8642 43.9735 53.0684 43.769 53.4418 43.7111L53.8481 43.3063C53.952 43.2155 54.0741 43.1445 54.2146 43.0948C54.788 42.5235 55.3027 41.9074 55.7601 41.2468C55.9131 41.2729 56.0169 41.2224 56.0694 41.0931V40.3232H56.8422C56.9813 40.2138 57.0344 40.0592 56.9973 39.8605C56.8875 39.722 56.7323 39.6699 56.5329 39.7069C56.4912 39.4174 56.5949 39.2123 56.8422 39.0906C56.9087 38.9044 57.0124 38.7504 57.1515 38.6288C57.2272 38.3978 57.3309 38.1927 57.4608 38.0125C57.4931 37.754 57.391 37.6 57.1515 37.5507C56.7203 37.8972 56.3585 38.3082 56.0694 38.7825C56.0957 39.1089 56.045 39.4174 55.9152 39.7069C55.7498 40.0873 55.544 40.4462 55.2967 40.785L55.2291 40.7945C55.1709 40.8135 55.1425 40.8613 55.1425 40.9386C54.739 41.0849 54.4295 41.3429 54.2146 41.7094C53.8731 41.9959 53.6671 42.3563 53.596 42.7875C53.3489 42.746 53.1437 42.7981 52.9783 42.9411C52.6816 43.3231 52.2699 43.4769 51.7412 43.4029H51.587C51.4727 42.8456 51.4196 42.2806 51.4319 41.7094H50.9684C50.9005 42.2714 50.8482 42.8364 50.8142 43.4029C50.6953 43.506 50.593 43.6356 50.505 43.7879C50.7043 43.9865 50.7043 44.1672 50.505 44.3274C49.5481 44.3767 48.6204 44.3253 47.7223 44.1729C47.6188 44.1728 47.5681 44.1224 47.5681 44.0192H47.2588C46.8708 43.953 46.5106 43.8512 46.1767 43.7111C45.5708 43.7219 45.0032 43.6185 44.4761 43.4029L44.3479 43.4159C44.0533 43.434 43.787 43.3785 43.5491 43.2493C43.2153 43.0999 42.8534 42.9721 42.4671 42.8643C42.3512 42.7612 42.2982 42.6333 42.312 42.4794C41.5469 42.4763 40.7742 42.4234 39.9937 42.3248ZM52.6959 31.3628C52.703 31.391 52.7123 31.4186 52.721 31.4465C52.7006 31.381 52.6837 31.315 52.6725 31.248L52.6959 31.3628ZM52.0505 61.5767C52.0758 61.6042 52.1023 61.6296 52.1293 61.6535L52.0505 61.5767L51.9344 61.5965C51.9724 61.591 52.0112 61.5847 52.0505 61.5767ZM50.505 40.0919C50.3025 40.4415 50.3025 40.7759 50.505 41.0931C50.4802 40.8821 50.5063 40.6755 50.5821 40.4768C50.7412 40.7124 50.9218 40.9176 51.1226 41.0931C51.0809 40.8467 51.134 40.6416 51.2777 40.4768C51.3812 40.426 51.4835 40.374 51.587 40.3232C51.5252 39.7889 51.2931 39.7377 50.8913 40.1687C50.7801 40.0225 50.6517 39.9966 50.505 40.0919ZM48.6501 35.3946C48.8246 35.6731 48.9267 35.9812 48.9577 36.3182L48.9594 36.319C49.1942 36.7331 49.3994 37.1689 49.5771 37.6276C49.3406 37.8709 49.2639 38.1548 49.3458 38.4752C49.5018 38.6043 49.6825 38.655 49.8864 38.6288V39.0906C50.4582 39.7804 50.7669 39.6777 50.8134 38.7833C50.5754 38.5924 50.421 38.3359 50.3499 38.0125C50.8429 37.4119 50.6886 37.1564 49.8864 37.2426V36.319H50.3499C50.5044 36.2682 50.6081 36.1648 50.6592 36.0109C50.6792 35.8754 50.6285 35.7736 50.505 35.7027C50.2577 35.8536 50.001 35.8795 49.7322 35.7795C49.5328 35.5809 49.5328 35.4011 49.7322 35.2409H49.8864V34.6246C49.5834 34.3706 49.2232 34.2672 48.8043 34.3165C48.8507 34.7107 48.8 35.0697 48.6501 35.3946ZM47.413 41.5549C47.5165 41.966 47.7733 42.2216 48.1858 42.3248C48.3326 42.5434 48.384 42.8008 48.3408 43.0948H49.1136C48.8509 42.5143 48.645 41.8981 48.495 41.2468H48.3408C47.942 41.1744 47.6325 41.2762 47.413 41.5549ZM43.2399 37.5507C43.4793 37.9202 43.583 38.3314 43.5491 38.7825C43.889 38.7241 44.1458 38.8274 44.3219 39.0906C44.6079 39.4094 44.9681 39.6145 45.404 39.7069C45.5072 39.707 45.558 39.7577 45.5582 39.8605C45.6478 40.3302 45.4672 40.6386 45.0176 40.785C44.9434 40.9312 44.9165 41.0852 44.9396 41.2468H45.7132V40.785H46.1767C46.3593 40.9804 46.5796 41.123 46.8369 41.2122L46.9495 41.2468L47.1184 41.1725C47.4621 40.992 47.4566 40.7598 47.1037 40.4768C46.9416 40.366 46.8386 40.212 46.7953 40.015C46.4445 39.7871 46.0842 39.582 45.7132 39.3988V38.6288H44.9405C44.9977 38.1561 45.1005 37.6938 45.2489 37.2426C44.8579 37.3227 44.4976 37.4774 44.1668 37.7052C44.0248 37.699 43.9233 37.6461 43.8584 37.5507C43.707 37.4522 43.5516 37.3488 43.3941 37.2426C43.3431 37.3457 43.2908 37.4476 43.2399 37.5507ZM46.8005 34.7731C46.8036 34.7251 46.8019 34.6756 46.7953 34.6246C46.7986 34.65 46.8005 34.6751 46.8014 34.6997C46.8022 34.7246 46.8021 34.749 46.8005 34.7731ZM46.6402 35.1641C46.6888 35.1059 46.7263 35.0436 46.7528 34.9785C46.7351 35.022 46.7128 35.0641 46.6853 35.1046C46.6716 35.1246 46.6563 35.1448 46.6402 35.1641ZM35.5104 46.0217C35.5113 46.0702 35.5138 46.1177 35.5173 46.1642L35.5104 46.0217Z" fill="#565656"/>
<path fill-rule="evenodd" clip-rule="evenodd" d="M25.4635 48.177C25.4958 47.9247 25.4443 47.6941 25.3084 47.4848C25.3981 47.2846 25.5018 47.1039 25.6177 46.9453C25.7846 46.6235 26.0428 46.4184 26.3905 46.329C26.3873 46.0119 26.3367 45.7041 26.2363 45.4054C26.0895 45.1868 26.0388 44.9296 26.0821 44.6355C26.0032 44.2228 25.9778 43.8126 26.0041 43.4029C26.2174 42.9671 26.5009 42.6067 26.8548 42.3248V41.7094C26.6724 41.7433 26.5172 41.692 26.3905 41.5549C26.5326 41.1731 26.7648 41.0699 27.0861 41.2468C27.2577 41.0097 27.4898 40.9079 27.7818 40.9386C27.6598 40.8002 27.5051 40.6975 27.3183 40.6313C27.5656 39.8875 27.9258 39.2187 28.4004 38.6288C28.7265 38.1484 29.139 37.7894 29.6366 37.5507C29.7401 37.5507 29.7916 37.5001 29.7917 37.3971C29.7917 37.1923 29.6879 37.089 29.4824 37.089C29.4577 36.878 29.4838 36.6713 29.5595 36.4727C29.8377 36.274 30.0191 36.0169 30.101 35.7027C30.3468 35.2007 30.7085 34.7898 31.183 34.471C31.2526 33.9197 31.5614 33.5608 32.11 33.3929L32.4193 33.0848V32.4685C32.6249 32.4177 32.8323 32.3657 33.0379 32.3148C33.6561 31.802 34.2229 31.2364 34.7376 30.6205C34.7886 30.5173 34.8417 30.4155 34.8927 30.3123C34.9962 30.2615 35.0985 30.2095 35.202 30.1587C35.769 30.1586 36.1817 29.9013 36.4382 29.3887C36.7474 29.2856 37.057 29.1838 37.3661 29.0806C37.4695 29.0298 37.5711 28.9769 37.6745 28.9261C37.925 28.8209 38.1908 28.738 38.4715 28.6749L38.7566 28.6179L38.9116 28.3107L38.9861 28.2209C39.1681 28.02 39.4003 27.8709 39.6844 27.7712C40.1682 27.7527 40.6321 27.7283 41.0757 27.6944C41.1793 27.4896 41.3338 27.3358 41.5392 27.2326V26.7699C42.1374 26.7222 42.705 26.7735 43.2398 26.9244C43.5798 26.9829 43.8365 26.8796 44.0126 26.6163C43.9864 26.4639 44.0372 26.3605 44.1668 26.3081L44.6312 26.3081C44.9742 26.3573 45.2585 26.2556 45.4811 26C46.2957 26.1001 47.0937 26.2019 47.8773 26.3081C48.5752 26.2799 49.2541 26.3552 49.9141 26.5334L50.1957 26.6163L51.4319 26.6163C51.7766 26.6348 52.1123 26.5835 52.4369 26.4618C52.6904 26.5865 52.9223 26.7412 53.1325 26.9244V27.3862C53.7091 27.3369 54.2752 27.3874 54.8332 27.5399C55.0773 27.72 55.2824 27.9252 55.4509 28.1562C55.9037 28.304 56.3677 28.4073 56.8422 28.4643V28.9261C57.2239 28.9492 57.5336 29.1031 57.77 29.3879L58.2335 29.3887V29.8505C58.9879 29.5471 59.4002 29.8042 59.4698 30.6205C60.0323 30.6461 60.4981 30.8461 60.8646 31.2195L61.0162 31.3904C61.2572 31.4259 61.464 31.5293 61.6339 31.6985C62.2908 32.1266 62.9091 32.6149 63.4887 33.1616C63.651 33.2371 63.8062 33.2126 63.9531 33.0848C64.1541 33.5667 64.5159 33.8499 65.0351 33.9315C65.1603 34.2348 65.3655 34.466 65.6528 34.6246C65.8028 34.9173 65.8543 35.2257 65.8079 35.5491H66.2714V36.0109C66.4012 36.3588 66.6595 36.5126 67.0442 36.4727C67.0195 36.7344 67.0464 36.9916 67.1222 37.2426C67.4126 37.3273 67.6439 37.482 67.817 37.7052H67.972C68.2749 37.9562 68.4824 38.2639 68.5906 38.6288H69.0541C69.1174 39.1662 69.2719 39.679 69.5176 40.1687C69.8113 40.3181 70.1208 40.3694 70.4454 40.3232C70.467 40.5942 70.4155 40.8514 70.2903 41.0931C70.4171 41.2302 70.5723 41.2806 70.7547 41.2468C70.7269 41.8151 70.9849 42.1235 71.5275 42.1712C71.4858 42.4176 71.5379 42.6227 71.6817 42.7875C71.881 43.2802 71.9832 43.7931 71.991 44.3274H72.4545C72.4869 44.5799 72.4363 44.8111 72.3002 45.0205C72.4578 45.1006 72.5601 45.2284 72.6095 45.4054C72.6992 45.9275 72.8013 46.4418 72.9188 46.9453C73.0145 46.9622 73.0914 47.0129 73.1501 47.099C73.2491 47.8182 73.4304 48.5115 73.6916 49.1783C73.4474 49.5264 73.498 49.8088 73.8458 50.0259C73.8427 50.266 73.792 50.4974 73.6916 50.719C73.795 50.8729 73.8965 51.027 74 51.1808C73.8966 51.3854 73.795 51.5917 73.6916 51.7962C73.8616 52.688 73.8877 53.5878 73.7687 54.4919C73.4812 54.669 73.3529 54.9246 73.3823 55.2618C73.5183 55.7715 73.5444 56.2858 73.4594 56.8017C73.1903 56.9135 72.9793 57.0846 72.8261 57.3153L72.7637 57.418H73.2272V58.0343C73.0913 58.2775 72.9614 58.5348 72.8408 58.8042C72.7775 58.7334 72.7006 58.682 72.6095 58.6497C72.4596 58.9423 72.4081 59.2507 72.4545 59.5741H71.991C72.0466 60.1332 71.8408 60.544 71.3724 60.8059C71.1641 61.2694 70.8222 61.5631 70.3475 61.6871L70.1361 61.7303L70.0807 62.0048C70.0182 62.2774 69.9335 62.5451 69.8269 62.8084C69.4652 63.0147 69.1556 63.2718 68.899 63.5783C68.7893 63.7168 68.6348 63.7689 68.4355 63.732C68.3629 64.3248 68.2085 64.8904 67.972 65.4263C67.6536 65.4294 67.3441 65.4807 67.0442 65.5808V65.7345C66.862 65.7007 66.7074 65.7512 66.5807 65.8881C66.1649 66.6073 65.5466 67.019 64.7259 67.1207V67.5825C64.8881 67.5594 65.0426 67.5855 65.1894 67.6593C64.6128 67.8025 64.1489 68.111 63.798 68.5837C63.4937 68.6607 63.1847 68.6852 62.871 68.6606L62.7905 68.7555C62.5971 68.9703 62.366 69.1448 62.0983 69.2769L61.789 69.585H61.0162V69.7386C61.0193 69.9912 60.9156 70.1979 60.7069 70.3549C60.0362 70.3703 59.52 70.652 59.1614 71.2017C58.6142 71.3434 58.0988 71.524 57.615 71.7412C57.4327 71.9858 57.2273 72.2165 56.9973 72.4334C55.8759 72.6005 54.7495 72.6808 53.6177 72.6734L53.1326 72.6647L52.7782 72.764C51.9463 72.9746 51.0857 73.0443 50.1957 72.9729C49.6099 72.8004 48.9916 72.6986 48.3408 72.6647C48.3238 72.7602 48.2723 72.8375 48.1858 72.8961C47.2462 73.0177 46.3188 72.9917 45.404 72.8192C44.3884 72.6991 43.3585 72.5445 42.312 72.3566C42.2594 72.2274 42.1557 72.1768 42.0027 72.203C41.3351 72.1952 40.7167 72.0414 40.1479 71.7412V71.5867C40.0445 71.5866 39.9938 71.536 39.9937 71.433C39.6289 71.4715 39.3193 71.3682 39.0658 71.1249C38.7522 71.1495 38.4432 71.125 38.1389 71.0481C37.8174 70.7663 37.4555 70.5856 37.0568 70.5086C37.0058 70.4054 36.9527 70.3036 36.9017 70.2004C36.0841 70.0542 35.2599 69.9508 34.4283 69.8923C34.2231 69.8921 34.12 69.7895 34.1199 69.585C33.4553 69.2555 32.7348 69.0504 31.9558 68.9687C31.9002 68.8117 31.7979 68.7083 31.6465 68.6606C31.2956 68.5897 31.0883 68.3846 31.028 68.0443H30.8738V67.8906C30.3915 67.769 30.1335 67.4606 30.101 66.9662C29.8614 66.6767 29.5518 66.5229 29.1731 66.5044C28.9614 65.6482 28.807 64.7765 28.7097 63.8865H28.5546V63.732C28.4559 63.6396 28.405 63.5116 28.4004 63.347C28.5363 63.0699 28.6401 62.7881 28.7097 62.5002C28.4747 62.4987 28.2949 62.3954 28.1682 62.1921C28.0415 61.7887 27.9647 61.3791 27.9369 60.9604C27.7313 60.8064 27.7313 60.6526 27.9369 60.4986V60.3441C27.8271 60.0823 27.6212 59.9285 27.3183 59.8823C27.0432 59.8161 26.8888 59.637 26.8548 59.3428C26.7498 58.653 26.6721 57.9603 26.6226 57.2643C26.5639 57.1781 26.4863 57.1268 26.3905 57.1098V56.8017C26.2499 56.4691 26.1485 56.11 26.0821 55.7236C25.9785 55.2616 25.8763 54.7993 25.7728 54.3374V54.1837H25.6177C25.5961 53.5293 25.4923 52.8872 25.3084 52.2589C25.3254 52.0002 25.4276 51.8195 25.6177 51.7194C25.6039 51.5655 25.6569 51.4376 25.7728 51.3345C25.5734 51.259 25.366 51.233 25.1542 51.2576C25.0816 50.8603 25.1837 50.5519 25.4635 50.3332C25.3476 49.6018 25.1932 48.8838 25 48.177H25.4635ZM30.8738 44.7892C30.9634 45.1157 31.0917 45.4241 31.2601 45.7136C31.4332 46.4974 31.51 47.2673 31.4915 48.0234V48.177L31.5599 48.1874C31.6177 48.2066 31.6465 48.2543 31.6465 48.3315C31.999 48.9398 32.4629 49.4525 33.0379 49.8714C33.2573 50.3641 33.4117 50.877 33.5014 51.4113H33.9649V51.8739C34.4811 51.8139 34.6355 51.9936 34.4283 52.4125C34.586 52.9639 34.8434 53.4521 35.202 53.8756C35.5883 54.1328 35.8971 54.4673 36.129 54.8768C36.3516 54.9107 36.5574 54.988 36.7475 55.1082C36.8325 55.4407 36.9363 55.7485 37.0568 56.0317C37.0568 56.1349 37.1075 56.1862 37.211 56.1863V56.3399C37.5341 56.3953 37.8436 56.4971 38.1389 56.648C38.4975 57.4688 39.1157 57.9311 39.9937 58.0343C39.9829 58.2589 40.0353 58.4635 40.1479 58.6497C40.7322 59.1287 41.2467 59.6422 41.6934 60.1904C41.899 60.2936 42.1064 60.3954 42.312 60.4986C42.7278 60.7065 43.1411 60.9107 43.5491 61.114C43.7546 61.1648 43.9614 61.2177 44.1668 61.2685C44.4822 61.5272 44.7917 61.7828 45.0947 62.0384C45.6169 61.9446 45.9257 62.1491 46.0217 62.6539L46.1767 62.6547C46.2278 62.8085 46.3316 62.9112 46.486 62.962C46.9357 63.1052 47.3483 63.3104 47.7223 63.5783C48.0592 63.5444 48.3173 63.6738 48.495 63.9633C48.7996 64.0403 49.1091 64.0647 49.4229 64.0401V64.5027C49.8186 64.4566 50.1788 64.507 50.505 64.6564H50.8142C51.5762 64.7734 52.2983 64.9786 52.9783 65.2727C53.1776 65.2358 53.3321 65.2878 53.4418 65.4263H54.9874C56.9969 65.4833 59.0067 65.5346 61.0162 65.5808H61.4797C61.9496 65.3483 62.4657 65.245 63.0252 65.2727H63.3345C63.5494 64.9046 63.8589 64.6475 64.2624 64.5027C64.8234 64.4257 65.3381 64.2206 65.8079 63.8865H66.2714C66.4167 63.5369 66.6226 63.2285 66.89 62.962C67.2099 62.6418 67.5718 62.3846 67.972 62.1921C68.1297 61.7272 68.4387 61.4195 68.899 61.2685C69.0026 61.1145 69.1047 60.9599 69.2083 60.8059C69.4416 60.6519 69.6999 60.5494 69.9811 60.4986C69.9069 59.9056 70.1658 59.5972 70.7547 59.5741C70.6002 59.1385 70.5994 58.7288 70.7538 58.3424C70.961 58.056 71.1162 57.7476 71.2182 57.418C71.4824 56.9623 71.7913 56.5527 72.1452 56.1863C72.258 55.9999 72.311 55.7948 72.3002 55.57C71.9989 54.763 71.8952 53.8914 71.991 52.952H72.1452C72.1962 52.8488 72.2492 52.747 72.3002 52.6439C72.1596 52.1911 72.0574 51.7289 71.991 51.2576V50.7958L72.1972 50.6957C72.6023 50.4772 72.4809 50.3561 71.8359 50.3332C71.8204 49.4555 71.7437 48.5837 71.6046 47.7152C71.2089 47.3472 71.1314 46.9378 71.3724 46.4835C71.2673 46.2248 71.0599 46.123 70.7538 46.1754V44.9437L70.753 44.9428C70.1218 44.8762 69.8131 44.5163 69.8269 43.8656C69.6939 43.7069 69.5918 43.5263 69.5176 43.3261C69.5284 43.2091 69.5799 43.1317 69.6726 43.0948C69.5103 42.8238 69.2514 42.7228 68.899 42.7875V41.7094H67.972V40.6313C67.8175 40.6452 67.6892 40.5923 67.5856 40.4768C67.5099 40.2258 67.4838 39.9687 67.5085 39.7069C67.2179 39.7485 67.0121 39.6452 66.89 39.3988C66.5453 39.0738 66.2357 38.7149 65.9621 38.3207C65.6671 38.1682 65.5125 37.9125 65.4986 37.5507C65.1895 37.1396 64.8293 36.7807 64.4166 36.4727C64.262 36.3695 64.1076 36.2677 63.9531 36.1645C63.6826 35.9859 63.5282 35.7288 63.4896 35.3946C63.2577 35.3191 63.0519 35.2158 62.871 35.0864C62.6594 34.8232 62.4011 34.6188 62.0983 34.471C61.7845 34.3108 61.5786 34.0529 61.4797 33.7002L61.4191 33.6363C61.2713 33.4955 61.0843 33.4145 60.8611 33.3929C60.6217 33.3436 60.5194 33.1889 60.5519 32.9303C59.9864 33.0625 59.6514 32.8581 59.5478 32.3148C59.2417 32.1223 58.9583 31.9172 58.697 31.6985V31.5449C58.3895 31.3141 58.0291 31.1852 57.615 31.1591C57.5115 31.0052 57.41 30.8511 57.3066 30.6973C56.965 30.668 56.6554 30.5915 56.3787 30.4668C56.2243 30.416 56.1205 30.3125 56.0694 30.1587C55.6151 30.0109 55.2548 29.7551 54.9874 29.3887H54.3688C54.2591 29.2501 54.1047 29.1973 53.9053 29.2342C53.9377 28.9756 53.8356 28.8217 53.596 28.7725C53.1973 28.777 52.837 28.6753 52.514 28.4643C51.7072 28.2826 50.883 28.1288 50.0406 28.0025V27.848H49.8864C49.1723 27.7233 48.4503 27.6713 47.7223 27.6944C47.7285 27.8607 47.78 28.0145 47.8773 28.1562C47.477 28.3071 47.0653 28.3584 46.6402 28.3107C46.0219 28.2075 45.4037 28.1057 44.7854 28.0025L43.2398 28.6179C43.1672 28.835 43.0126 28.9367 42.7764 28.9261C42.523 28.9584 42.2908 28.9078 42.0807 28.7725C42.0065 28.9187 41.9796 29.0726 42.0027 29.2342H40.6123V29.696C39.9584 29.6159 39.3908 29.7966 38.9116 30.2355C38.3568 30.2586 37.8421 30.3865 37.3661 30.6205C37.3568 30.7914 37.3053 30.9452 37.211 31.0823H36.4382C36.2296 31.2409 36.0752 31.446 35.9748 31.6985C35.7692 31.7494 35.5618 31.8014 35.3562 31.8522C35.2465 31.9907 35.092 32.0436 34.8927 32.0067C34.5929 33.0676 34.2064 34.0948 33.7335 35.0864C33.63 35.2019 33.5009 35.2548 33.3463 35.2409C33.2366 35.3793 33.082 35.4315 32.8828 35.3946V36.0109C32.8333 36.2494 32.6789 36.3513 32.4193 36.319C32.4456 36.8349 32.4195 37.3477 32.3422 37.8589C32.2154 38.0622 32.0357 38.1655 31.8007 38.167C31.6262 38.4457 31.5224 38.7535 31.4915 39.0906C31.5193 39.6476 31.416 40.1618 31.183 40.6296V40.6313C31.2248 42.028 31.121 43.414 30.8738 44.7892ZM57.3057 70.2004C57.2868 70.2581 57.2665 70.3144 57.2442 70.3688L57.3057 70.2004L57.4365 70.0813C57.3919 70.1191 57.348 70.1586 57.3057 70.2004ZM37.5991 62.2283C37.6258 62.2306 37.6539 62.2344 37.6832 62.2404C37.6244 62.2283 37.571 62.2237 37.5229 62.2266L37.5991 62.2283ZM31.2671 36.048C31.3523 35.9629 31.4323 35.8694 31.5062 35.7666C31.5555 35.6981 31.6023 35.6255 31.6465 35.5491C31.5359 35.7401 31.4091 35.9062 31.2671 36.048ZM30.2552 62.6547C30.2939 62.6675 30.3295 62.683 30.3618 62.7022L30.2552 62.6547ZM29.0571 54.6481C29.0974 54.6407 29.1362 54.6282 29.1731 54.6101C29.1548 54.6192 29.1361 54.6262 29.1168 54.6326C29.0976 54.639 29.0772 54.6444 29.0571 54.6481ZM27.1641 54.0301V53.5674C27.1641 53.7214 27.1641 53.8761 27.1641 54.0301Z" fill="#565656"/>
</svg>
