<svg width="100" height="100" viewBox="0 0 100 100" fill="none" xmlns="http://www.w3.org/2000/svg">
<rect width="100" height="100" fill="#17BEBB"/>
<mask id="mask0_3436_2" style="mask-type:luminance" maskUnits="userSpaceOnUse" x="16" y="13" width="67" height="74">
<path d="M82.8845 13.1118H16.1538V86.8595H82.8845V13.1118Z" fill="white"/>
</mask>
<g mask="url(#mask0_3436_2)">
<g filter="url(#filter0_d_3436_2)">
<path d="M51.9989 13.5628C53.256 14.2125 54.0898 15.4741 54.2021 16.8961C54.2835 17.9294 54.5135 18.6456 54.7612 19.1397C54.7704 19.1282 54.7797 19.117 54.7886 19.1058C54.7929 19.1002 54.8005 19.0908 54.8105 19.0784C54.8545 19.0236 54.9438 18.9123 55.0023 18.8424L55.0045 18.8399C55.0395 18.7981 55.158 18.6568 55.3137 18.5032C55.3859 18.4319 55.5723 18.2516 55.8387 18.0631C55.9746 17.9669 56.2119 17.811 56.5317 17.668C56.8263 17.5364 57.4106 17.3153 58.1826 17.3153C59.8656 17.3153 61.3749 18.3622 61.9796 19.949C62.3022 20.7949 62.6612 21.5906 63.0524 22.3473C63.7605 22.3818 64.462 22.603 65.0813 23.0117C66.7701 24.1262 68.3248 25.9183 69.5884 27.7913C69.6626 27.9014 69.7363 28.0126 69.81 28.1251C70.8525 28.2217 71.8413 28.7235 72.5446 29.5626C74.1352 31.4601 75.2996 34.3436 76.0068 37.1838C76.6762 39.8696 77.0536 42.9838 76.8401 46.0421C80.4397 48.1948 82.8844 52.1255 82.8844 56.6737C82.8844 60.5243 80.9329 64.0065 78.9465 66.5084C77.2908 68.617 74.6128 71.3441 70.8407 72.0366C70.6376 73.4427 70.3409 74.7981 69.98 76.0519C69.2771 78.4946 68.2123 80.9583 66.7805 82.6569C66.1418 83.4153 65.2698 83.8959 64.3359 84.0496C64.179 84.2075 64.0198 84.3588 63.8573 84.503C62.6372 85.584 60.8973 85.8288 59.431 85.1263C59.3578 85.091 59.2865 85.0542 59.2166 85.0156C56.3456 86.2713 53.1133 86.8979 49.7659 86.8578C46.5634 86.8349 43.4379 86.2465 40.62 85.0762C40.6118 85.08 40.6036 85.0843 40.5954 85.0886C39.1105 85.8389 37.3233 85.6026 36.0796 84.4915C35.9301 84.3579 35.7832 84.218 35.639 84.0734C34.6486 83.9527 33.7145 83.4659 33.0381 82.6703C31.6492 81.0365 30.6017 78.6955 29.8943 76.3655C29.5878 75.3556 29.3238 74.2774 29.1177 73.1582C24.8256 72.7836 21.8345 69.7309 20.0711 67.513C18.0605 64.983 16.1538 61.5018 16.1538 57.6674C16.1538 53.4171 18.3191 49.6745 21.5406 47.4469C21.5402 47.3891 21.54 47.3307 21.54 47.2723C21.54 47.0607 21.5505 46.8684 21.558 46.7508C21.2257 43.4933 21.6019 40.1324 22.314 37.2622C23.0254 34.3947 24.2073 31.4759 25.8277 29.5694C26.4173 28.8757 27.2026 28.4167 28.0506 28.2304C28.2472 27.9219 28.4471 27.6219 28.6492 27.3312C29.8496 25.6054 31.3076 23.9575 32.8916 22.9051C33.5572 22.4629 34.3188 22.2377 35.0823 22.2292C37.1495 20.3706 39.6651 18.7661 42.8001 18.0432C43.0693 17.9812 43.3416 17.9474 43.6134 17.9412C43.8719 17.5843 44.125 17.2691 44.3531 17.0002C45.7222 15.3869 47.2906 14.165 48.0347 13.7086C49.2416 12.9684 50.7419 12.9132 51.9989 13.5628ZM43.7054 22.0512C42.957 22.2237 42.2492 22.4661 41.5762 22.7671C41.0078 23.0214 40.4643 23.3175 39.9424 23.6489C39.5353 23.9073 39.1412 24.1872 38.7587 24.4852C37.9486 25.1166 37.1901 25.8296 36.4682 26.5942C36.236 26.84 36.0077 27.0912 35.7827 27.3467C35.4038 27.7767 35.0342 28.2191 34.6714 28.6689C37.1222 25.6298 39.8866 22.9316 43.7054 22.0512ZM35.1274 26.3399C34.6234 26.6748 34.0857 27.1495 33.5393 27.737C33.3598 27.93 33.1792 28.1352 32.9987 28.3516C32.6765 28.7377 32.3543 29.1594 32.0368 29.6112C31.7611 30.0036 31.4891 30.4186 31.2241 30.8529C30.9808 31.2514 30.7434 31.666 30.5143 32.094C30.3277 32.4427 30.1466 32.8003 29.9725 33.1653C29.6843 33.7693 29.4151 34.3935 29.1712 35.031C29.0857 34.0937 29.0002 33.1565 28.9147 32.2476C28.4558 32.7875 28.0055 33.5277 27.5902 34.4135C27.4711 34.6677 27.3548 34.9338 27.242 35.2106C26.9014 36.047 26.5926 36.9809 26.3332 37.977C25.7983 40.0306 25.4726 42.3482 25.5072 44.6178C25.4309 39.6132 27.1064 34.3752 28.9147 32.2476C29.0002 33.1565 29.0857 34.0937 29.1712 35.031C30.6816 31.0831 33.161 27.6464 35.1274 26.3399C35.1274 26.34 35.1274 26.3399 35.1274 26.3399ZM24.9689 50.1824C22.1848 51.5146 20.2227 54.3884 20.2227 57.6674C20.2228 54.0889 22.5596 50.9931 25.7514 49.8571C25.4843 49.9522 25.2232 50.0609 24.9689 50.1824ZM33.6912 74.8454C34.0115 75.955 34.3925 76.975 34.8077 77.8512C34.8098 77.856 34.812 77.8608 34.8142 77.8651C34.3881 76.9678 33.9978 75.9197 33.6718 74.7776C33.6783 74.8 33.6847 74.8225 33.6912 74.8454ZM37.0095 79.2243C37.0227 79.2449 37.036 79.2654 37.0493 79.2864C36.8556 78.9843 36.6635 78.664 36.4743 78.3275C36.6505 78.6411 36.8293 78.9408 37.0095 79.2243ZM37.1087 79.378C37.1629 79.4615 37.2173 79.5432 37.2717 79.6233C37.2143 79.5389 37.157 79.4525 37.0997 79.3642C37.1027 79.369 37.1057 79.3737 37.1087 79.378ZM37.8057 80.3579C37.8987 80.4762 37.9918 80.5898 38.0847 80.6986C37.9622 80.5555 37.8396 80.4032 37.7171 80.2433C37.7466 80.282 37.7762 80.3202 37.8057 80.3579ZM39.9031 80.1235C39.987 80.1746 40.0714 80.2252 40.1565 80.2753C39.7738 80.0505 39.4035 79.8119 39.0467 79.5584C39.3242 79.7556 39.6099 79.9436 39.9031 80.1235ZM41.8922 81.1563C42.203 81.2919 42.5198 81.4193 42.8423 81.5377C43.3605 81.7286 43.8934 81.8971 44.4392 82.0436C43.0443 81.6694 41.7335 81.1492 40.5363 80.491C40.9736 80.7311 41.4261 80.9535 41.8922 81.1563ZM49.8706 82.7476C51.6376 82.7643 53.3346 82.5605 54.9191 82.1581C53.3323 82.561 51.6328 82.7648 49.8632 82.7476C49.8656 82.7476 49.8681 82.7476 49.8706 82.7476ZM57.508 81.2823C57.7374 81.1836 57.9634 81.08 58.1858 80.9721C57.9259 81.0981 57.6611 81.2184 57.3917 81.332C57.4305 81.3153 57.4693 81.2991 57.508 81.2823ZM59.6134 80.1837C59.7206 80.1168 59.8269 80.0486 59.9318 79.9794C60.3687 79.6911 60.7868 79.3818 61.1836 79.053C60.5837 79.5503 59.9355 80.0023 59.2454 80.4061C59.3696 80.3335 59.4924 80.2591 59.6134 80.1837ZM61.2313 80.2428C61.2242 80.365 61.2171 80.4872 61.2105 80.6094C61.2223 80.3922 61.2351 80.1746 61.2488 79.9574C61.2431 80.0524 61.237 80.1479 61.2313 80.2428ZM63.6093 79.0912C63.6093 79.095 63.6098 79.0988 63.6098 79.1026C63.616 79.1857 63.6221 79.2687 63.6282 79.3508C63.6013 78.99 63.5772 78.622 63.5427 78.2541C63.5687 78.5342 63.589 78.8139 63.6093 79.0912ZM64.2877 79.1508C64.3208 79.0974 64.3538 79.0435 64.3869 78.9881C64.2622 79.1962 64.1356 79.3909 64.008 79.5704C64.102 79.4386 64.1951 79.2983 64.2877 79.1508ZM71.1435 67.7039C71.4416 67.5942 71.7321 67.4629 72.0146 67.3131C71.3542 67.6629 70.6518 67.912 69.9054 68.0242C70.3324 67.9602 70.7448 67.8514 71.1435 67.7039ZM73.4148 48.9274C73.4138 48.9271 73.4134 48.9268 73.4124 48.9265C76.5708 50.1081 78.8152 53.1328 78.8152 56.6737C78.8152 53.1338 76.5723 50.1097 73.4148 48.9274ZM72.6925 48.6163C72.6968 48.5456 72.701 48.4755 72.7053 48.4057C72.6996 48.499 72.6939 48.5929 72.6883 48.688L72.6925 48.6163ZM71.4534 36.1332C71.4005 35.9808 71.3467 35.8308 71.2914 35.6834C71.6131 36.546 71.9003 37.4967 72.1374 38.5014C71.9409 37.6684 71.7099 36.8725 71.4534 36.1332ZM69.1259 35.9115C68.8236 35.0425 68.4717 34.1926 68.0848 33.3781C67.9468 33.0876 67.8047 32.8017 67.6582 32.521C68.2142 33.5887 68.7159 34.7326 69.1259 35.9115ZM67.3927 32.0242C67.3927 32.0239 67.3923 32.0236 67.3923 32.0233C67.4026 32.0418 67.4126 32.0604 67.423 32.079C67.4126 32.0607 67.4026 32.0424 67.3927 32.0242ZM67.3767 31.9948C67.2321 31.7317 67.0843 31.474 66.934 31.2223C67.0861 31.4773 67.2359 31.7385 67.3823 32.0051C67.3804 32.0016 67.3786 31.9982 67.3767 31.9948ZM65.3666 28.9223C64.5116 27.8305 63.6443 26.9735 62.8563 26.4535C63.7246 27.0264 64.6892 28.0085 65.6274 29.263C65.5405 29.147 65.4536 29.0334 65.3666 28.9223ZM63.0982 27.6653C63.1483 27.9128 63.1984 28.1606 63.248 28.4084C63.1884 28.1104 63.128 27.8125 63.0684 27.5153C63.0784 27.5653 63.0883 27.6153 63.0982 27.6653ZM58.1826 21.4263C58.1805 21.4263 58.1775 21.4274 58.1739 21.4297C58.1495 21.4451 58.0947 21.5136 58.0069 21.6232C57.6349 22.0864 56.6749 23.2829 54.9565 24.3005C54.9115 24.3272 54.8659 24.3537 54.8198 24.3802C54.0157 24.1252 52.4853 23.3331 51.3856 21.465C50.7698 20.4195 50.2892 19.0369 50.146 17.2228C49.7488 17.4664 48.3526 18.526 47.2084 19.9599C47.0662 20.1381 46.928 20.322 46.7961 20.5109C47.9904 18.802 49.6995 17.4967 50.146 17.2228C50.545 22.2784 53.5657 23.9826 54.8198 24.3802C57.0998 23.0737 58.0972 21.4263 58.1826 21.4263ZM60.2124 74.9843C59.8538 75.4109 59.4556 75.8109 59.0191 76.1808C56.838 78.0297 53.7073 79.1318 49.8896 79.1112C49.876 79.1112 49.8622 79.1108 49.8486 79.1108C49.8416 79.1108 49.8345 79.1108 49.8275 79.1103C49.7718 79.1098 49.716 79.1088 49.6605 79.1074C49.7366 79.1093 49.813 79.1103 49.8896 79.1112C54.5939 79.1365 58.2543 77.4575 60.381 74.7776C60.3257 74.8473 60.2695 74.916 60.2124 74.9843ZM46.836 78.8401C44.4565 78.4268 42.4181 77.5577 40.8216 76.3302C40.3945 76.0018 39.9989 75.6472 39.6369 75.2692C39.484 75.1098 39.337 74.9456 39.1962 74.7776C41.1021 77.0528 44.1316 78.5738 47.9253 78.9943C47.555 78.9533 47.1917 78.9017 46.836 78.8401ZM30.1516 53.1291C30.1436 53.0916 30.1358 53.0543 30.1283 53.0167C30.0781 52.7673 30.0384 52.5163 30.0089 52.2642C30.1435 53.4169 30.4924 54.5446 31.0732 55.5923C30.6386 54.8085 30.3339 53.9796 30.1516 53.1291ZM29.9451 51.2136C29.9447 51.1401 29.9451 51.0666 29.9464 50.9931C29.9394 51.4056 29.9585 51.8175 30.0046 52.2263C29.9668 51.8902 29.9471 51.5523 29.9451 51.2136ZM49.9083 75.494C49.706 75.5178 49.5001 75.5403 49.2912 75.5608C49.2913 75.5608 49.2913 75.5613 49.2914 75.5613C49.5068 75.5398 49.7186 75.5164 49.9271 75.4916C49.921 75.4921 49.9148 75.493 49.9083 75.494ZM72.1615 52.8454C72.171 52.6735 72.1752 52.5018 72.1752 52.331C72.1748 52.9658 72.1124 53.6094 71.9877 54.252C72.0789 53.7824 72.137 53.3123 72.1615 52.8454ZM72.6316 52.328C72.6325 52.3285 72.6335 52.3289 72.6344 52.3293C72.6127 52.3189 72.5909 52.3086 72.5692 52.2985C72.59 52.3082 72.6108 52.3181 72.6316 52.328ZM72.6528 52.3384C72.7931 52.407 72.9296 52.4822 73.0619 52.5637C72.9282 52.4814 72.7908 52.4056 72.649 52.3365C72.6505 52.3371 72.6514 52.3378 72.6528 52.3384ZM75.1064 55.1791C75.1659 55.3653 75.2151 55.5567 75.2524 55.7521C75.1688 55.3143 75.0271 54.8977 74.8357 54.5111C74.9416 54.7251 75.0323 54.9483 75.1064 55.1791ZM75.2652 55.8227C75.3086 56.0728 75.3337 56.3296 75.3379 56.5921C75.3337 56.3296 75.3086 56.0723 75.2652 55.8218V55.8227ZM75.3029 57.1004C75.2992 57.1271 75.2944 57.1538 75.2902 57.1815C75.2699 57.3008 75.2434 57.4273 75.2108 57.5595C75.2944 57.2192 75.3384 56.9176 75.3384 56.6737C75.3384 56.8011 75.3266 56.9443 75.3029 57.1004ZM71.4336 63.4491C71.4307 63.4519 71.4274 63.4543 71.4241 63.4572C71.4695 63.4209 71.5148 63.3841 71.5602 63.3469C71.5181 63.3818 71.4761 63.4156 71.4336 63.4491ZM71.2394 63.6003C70.3976 64.238 69.5964 64.6169 69.0872 64.6518C69.0744 64.6527 69.0622 64.6532 69.0499 64.6537C69.5794 64.6341 70.4496 64.2199 71.3533 63.513C71.3155 63.5426 71.2777 63.5722 71.2394 63.6003ZM71.2612 56.5577C71.2621 56.5544 71.2635 56.5515 71.2649 56.5482C71.1317 56.8622 70.9857 57.172 70.8284 57.476C70.9843 57.1748 71.1289 56.8684 71.2612 56.5577ZM71.5465 55.827C71.5229 55.8933 71.4988 55.9587 71.4742 56.0251C71.4988 55.9592 71.5229 55.8929 71.5465 55.827ZM30.4718 61.5213C30.4828 61.5357 30.4938 61.55 30.5048 61.5643C30.3764 61.3973 30.2502 61.2283 30.1263 61.0574C30.2396 61.2135 30.3547 61.3686 30.4718 61.5213ZM30.5487 61.6216C30.5966 61.6831 30.6447 61.7447 30.6932 61.8063C30.6441 61.7442 30.5954 61.6817 30.547 61.6192C30.5476 61.6201 30.5482 61.6206 30.5487 61.6216ZM30.9538 65.3076C30.6407 65.5729 30.3648 65.6746 30.0119 65.677C30.0071 65.677 30.0024 65.677 29.9977 65.677C29.4652 65.677 28.5679 65.2584 27.6294 64.5172C27.0611 64.0681 26.4776 63.5011 25.9509 62.8367C25.9357 62.8176 25.9205 62.7981 25.9054 62.7785C24.6959 61.2245 23.8523 59.2347 23.6969 58.0544C23.6798 57.9246 23.671 57.8048 23.671 57.696C23.671 58.8038 24.5829 61.1042 25.9509 62.8367C27.3473 64.5979 29.1427 65.677 29.9977 65.677C30.4019 65.677 30.7042 65.55 31.0732 65.2002C31.0327 65.2383 30.9929 65.2741 30.9538 65.3076ZM25.008 54.3278C25.0133 54.3223 25.0186 54.3167 25.024 54.3111C24.7146 54.6316 24.45 54.994 24.2391 55.3901C24.4464 55.0009 24.7054 54.6442 25.008 54.3278ZM25.0745 54.2596C25.3658 53.9666 25.6954 53.7101 26.0561 53.4966C26.1304 53.4527 26.2059 53.4106 26.2828 53.3702C25.8314 53.6066 25.4236 53.9079 25.0716 54.2625C25.0726 54.2615 25.0735 54.2605 25.0745 54.2596ZM73.4124 48.9265C73.1762 48.8378 72.9344 48.7597 72.6883 48.6925C72.9344 48.7598 73.1758 48.838 73.4124 48.9265ZM61.3074 81.2905C61.5223 81.0876 61.741 80.8509 61.9612 80.5846C61.741 80.8504 61.5223 81.0876 61.3074 81.2905ZM61.5974 27.7738C61.4014 27.4956 61.2077 27.2125 61.0168 26.9238C61.2077 27.2125 61.4009 27.4956 61.5974 27.7738ZM49.5323 79.1046C49.0175 79.0898 48.5146 79.0563 48.0244 79.0048C48.5147 79.0568 49.0176 79.0902 49.5323 79.1046Z" fill="white"/>
<path d="M50.1459 17.2228C49.4051 17.6772 45.1872 20.9719 45.6147 24.2381C44.2183 23.2156 43.7338 22.2783 43.7053 22.0512C39.8866 22.9316 37.1222 25.6298 34.6714 28.6689C34.8138 27.902 34.9848 27.1068 35.1273 26.3399C33.1609 27.6464 30.6816 31.0831 29.1711 35.031C29.0856 34.0937 29.0002 33.1564 28.9147 32.2476C26.8628 34.6618 24.9819 41.0806 25.6374 46.6192C25.6374 46.8464 25.6089 47.0451 25.6089 47.2723C25.6089 48.1529 25.6658 49.0049 25.7514 49.857C22.5595 50.993 20.2227 54.0889 20.2227 57.6673C20.2227 60.1668 21.5051 62.7513 23.2435 64.9386C24.9819 67.1255 27.2048 69.0851 29.9976 69.0851C30.9951 69.0851 31.907 68.7444 32.705 68.2614C32.7619 73.0613 34.3864 77.9467 36.1248 79.9918C36.1818 79.3384 36.2388 78.6855 36.2958 78.0035C37.0937 79.4801 37.9487 80.6733 38.7751 81.4117C38.7181 80.702 38.6896 79.9631 38.6326 79.253C41.568 81.4971 45.5008 82.7184 49.8041 82.7466C54.3353 82.8034 58.4102 81.4117 61.3173 78.9408C61.2602 79.7646 61.2035 80.5884 61.1747 81.4117C61.9442 80.7301 62.7709 79.5942 63.5404 78.2311C63.5971 78.8272 63.6259 79.4238 63.6826 79.9918C65.4782 77.8617 67.1311 72.6637 67.0739 67.6653C67.6724 67.9211 68.3281 68.091 69.0121 68.091C71.8049 68.091 74.0275 66.1599 75.7659 63.9444C77.5043 61.7576 78.8152 59.1731 78.8152 56.6737C78.8152 52.8676 76.2223 49.658 72.6883 48.6925C72.7166 48.2096 72.7454 47.7552 72.7454 47.2723C72.7454 47.0166 72.7454 46.7326 72.7166 46.477C73.3152 40.9672 71.4629 34.6334 69.4396 32.2192C69.3253 33.4405 69.2398 34.6902 69.126 35.9114C67.6441 31.6511 64.9651 27.8452 62.8564 26.4535C63.1129 27.76 63.3977 29.0949 63.6259 30.4014C61.5455 27.902 59.5789 25.0902 58.1826 21.4263C58.0971 21.4263 57.0997 23.0736 54.8197 24.3802C53.5657 23.9825 50.5449 22.2783 50.1459 17.2228ZM39.9435 40.257C40.0861 40.257 40.2285 40.257 40.3711 40.257C42.2234 40.3422 44.0189 41.1659 45.5577 42.3589C47.752 44.0912 49.3766 46.5907 50.0889 49.0331C51.343 46.5055 53.1097 44.8581 55.133 44.063C57.3845 43.1825 59.8354 43.2677 62.0297 44.0345C64.224 44.8013 66.1622 46.2498 67.3592 48.0959C68.5558 49.9423 68.9833 52.2428 68.1571 54.6285C67.6724 56.0484 67.1027 56.9858 66.0479 58.0368C64.6803 59.4285 62.1724 60.3091 60.0352 61.1323L60.3484 61.6153C62.9702 65.9041 63.0841 70.3346 61.1463 73.6584C59.2086 76.9811 55.2188 79.1398 49.8895 79.1112C44.5603 79.0544 40.4565 76.9811 38.4046 73.6865C36.3527 70.3919 36.4382 65.9041 39.2026 61.2178C39.2596 61.1323 39.2881 61.0474 39.3451 60.9906C39.2596 60.962 39.1741 60.9052 39.0601 60.877C39.0316 60.877 39.0316 60.877 39.0031 60.8488C35.2413 60.0532 32.7335 58.2639 31.3085 55.9921C28.1167 50.8795 30.7385 43.6083 36.9797 40.9672C36.9797 40.9672 36.9797 40.9672 37.0082 40.9672C37.9772 40.5126 38.9746 40.257 39.9435 40.257ZM42.6509 51.6746C42.1094 51.6746 41.5964 51.8166 41.1405 52.0723C41.3685 52.186 41.5395 52.4414 41.5395 52.7257C41.6535 52.6971 41.7674 52.6686 41.8814 52.6686C42.5654 52.6686 43.1354 53.2368 43.1354 53.9184C43.1354 54.6002 42.5654 55.1681 41.8814 55.1681C41.1975 55.1681 40.6275 54.6002 40.6275 53.9184C40.6275 53.7482 40.656 53.5777 40.713 53.4358C40.428 53.4073 40.2 53.2085 40.1145 52.9528C39.7156 53.4924 39.4875 54.1456 39.4875 54.8557C39.4875 55.7649 39.858 56.5596 40.4565 57.1567C38.9176 57.4402 37.8632 58.3207 37.7777 58.463C38.4046 58.2071 40.2 57.8664 41.739 57.895C42.0239 57.98 42.3374 58.0368 42.6794 58.0368C42.7934 58.0368 42.9074 58.0368 43.0214 58.0086C44.6458 57.8382 45.8998 56.4746 45.8998 54.8274C45.8714 53.1233 44.4179 51.6746 42.6509 51.6746ZM72.2324 52.1575C74.0559 52.8391 75.3384 54.6003 75.3384 56.6737C75.3384 57.7809 74.4267 60.0819 73.0586 61.8144C71.6906 63.5469 69.8672 64.6546 69.0121 64.6546C68.5846 64.6546 68.2993 64.5124 67.8722 64.1148C67.5586 63.8027 67.1877 63.2911 66.8745 62.6949C67.4159 62.0697 67.9577 61.4168 68.4419 60.7348C68.4991 60.678 68.5275 60.6498 68.5846 60.593C69.8955 59.2581 70.9215 57.5824 71.5484 55.8213C71.5484 55.8213 71.5484 55.7931 71.5767 55.7649C71.9759 54.6285 72.1753 53.464 72.1753 52.328C72.2036 52.2995 72.2036 52.2428 72.2324 52.1575ZM60.0064 53.0381C57.8975 53.1233 55.9026 54.2308 54.1071 56.1339C57.0997 55.31 60.4906 56.2761 62.486 57.0426C61.7165 55.9348 59.9776 54.9127 59.1802 55.0547C59.7499 54.316 60.605 53.6912 62.2007 53.2935C61.4312 53.0948 60.7188 53.0096 60.0064 53.0381ZM26.4353 53.2935C26.4923 53.4925 26.5493 53.6912 26.6063 53.9184C26.8913 55.2249 27.3758 56.4746 28.0882 57.696C29.1711 59.8547 30.5391 61.8144 32.192 63.5182C31.8785 64.2284 31.4795 64.7964 31.1376 65.1376C30.7385 65.5347 30.4251 65.6769 29.9976 65.6769C29.1427 65.6769 27.3473 64.5973 25.9508 62.8367C24.5829 61.1042 23.671 58.8037 23.671 57.696C23.671 55.7363 24.7824 54.0889 26.4353 53.2935ZM46.2701 62.4678C45.7286 62.4391 45.3869 62.7799 45.1872 62.9503C44.9594 63.1493 44.7597 63.3483 44.7597 63.3483C44.6173 63.5182 44.5034 63.6886 44.5034 63.9158C44.4749 64.1148 44.5888 64.342 44.7597 64.4556C45.1018 64.6546 45.5577 64.5692 46.0422 64.2852C46.2131 64.2003 46.3843 64.1716 46.5837 64.2284C46.783 64.257 47.0397 64.3702 47.296 64.5124C47.7805 64.7682 48.2935 65.1658 48.9206 65.109C49.12 65.109 49.2624 64.825 49.1769 64.6546C49.0915 64.4842 48.9776 64.3702 48.8067 64.1716C48.6355 63.9731 48.4076 63.7454 48.1225 63.4901C47.5811 62.9784 46.9542 62.5241 46.2701 62.4678ZM52.8819 62.4678C52.2265 62.5241 51.5993 62.9784 51.0863 63.4614C50.83 63.6886 50.5734 63.9444 50.4025 64.143C50.2314 64.342 50.1174 64.4556 50.032 64.626C49.9465 64.825 50.0889 65.0803 50.2886 65.0803C50.887 65.1376 51.3999 64.7396 51.8844 64.4842C52.1408 64.342 52.3689 64.2571 52.5967 64.2003C52.7964 64.143 52.9673 64.1716 53.1382 64.2571C53.6227 64.541 54.0502 64.626 54.3922 64.4274C54.5631 64.3138 54.6773 64.1148 54.6773 63.8876C54.6486 63.6886 54.5631 63.4901 54.3922 63.3197C54.3922 63.3197 54.2213 63.1211 53.9647 62.9221C53.7653 62.7799 53.4233 62.4391 52.8819 62.4678ZM59.8638 69.2555C56.4441 74.1127 53.5657 75.1346 49.2911 75.5608C53.4802 77.2083 59.4363 74.1977 59.8638 69.2555Z" fill="#0A0A0A"/>
</g>
</g>
<defs>
<filter id="filter0_d_3436_2" x="6.15381" y="3.11182" width="86.7305" height="93.7479" filterUnits="userSpaceOnUse" color-interpolation-filters="sRGB">
<feFlood flood-opacity="0" result="BackgroundImageFix"/>
<feColorMatrix in="SourceAlpha" type="matrix" values="0 0 0 0 0 0 0 0 0 0 0 0 0 0 0 0 0 0 127 0" result="hardAlpha"/>
<feOffset/>
<feGaussianBlur stdDeviation="5"/>
<feComposite in2="hardAlpha" operator="out"/>
<feColorMatrix type="matrix" values="0 0 0 0 1 0 0 0 0 1 0 0 0 0 1 0 0 0 0.1 0"/>
<feBlend mode="normal" in2="BackgroundImageFix" result="effect1_dropShadow_3436_2"/>
<feBlend mode="normal" in="SourceGraphic" in2="effect1_dropShadow_3436_2" result="shape"/>
</filter>
</defs>
</svg>
